<?xml version="1.0" encoding="UTF-8" standalone="no"?>
<!DOCTYPE svg PUBLIC "-//W3C//DTD SVG 1.1//EN" "http://www.w3.org/Graphics/SVG/1.1/DTD/svg11.dtd">
<svg width="100%" height="100%" viewBox="0 0 257 256" version="1.1" xmlns="http://www.w3.org/2000/svg" xmlns:xlink="http://www.w3.org/1999/xlink" xml:space="preserve" xmlns:serif="http://www.serif.com/" style="fill-rule:evenodd;clip-rule:evenodd;stroke-linejoin:round;stroke-miterlimit:2;">
    <g transform="matrix(1,0,0,1,-6415,-1760)">
        <g transform="matrix(0.32,0,0,0.426667,6415.82,1760)">
            <rect id="vk-01" x="0" y="0" width="800" height="600" style="fill:none;"/>
            <g id="vk-011" serif:id="vk-01">
                <g transform="matrix(0.180843,0,0,0.180843,328.341,241.975)">
                    <g transform="matrix(26.0417,0,0,19.5312,-11671.8,-10657.4)">
                        <path d="M511.839,533.788L511.839,528.957C508.852,527.455 505.536,526.094 501.949,524.895C500.862,526.219 499.627,527.409 498.318,528.504C499.25,528.626 500.511,528.686 502.381,528.434C500.104,530.438 495.884,530.396 494.264,531.547L494.263,531.547C493.034,532.242 491.94,532.919 490.965,533.572C485.754,537.767 485.027,541.193 486.047,542.732C485.883,542.097 486.732,540.228 487.974,539.381C489.104,538.611 489.865,541.108 489.809,542.817C490.114,542.581 490.417,542.289 490.708,541.939C490.697,539.404 491.096,535.805 492.918,533.656C494.36,533.214 496.529,536.578 497.467,540.739C497.292,540.029 497.536,538.379 497.536,538.379C497.536,538.379 499.413,541.458 498.968,544.632C498.976,546.032 500.6,546.467 501.926,544.646C503.17,542.935 507.166,536.179 511.839,533.788ZM492.002,543.424C491.968,542.941 492.762,543.839 492.937,544.695C491.926,540.518 493.818,539.783 493.513,536.164C495.33,537.922 495.482,541.975 495.13,543.941C494.778,545.905 493.337,547.398 493.337,547.398L493.767,545.307C493.767,545.307 492.411,546.793 490.987,547.253C491.932,545.977 492.034,543.907 492.002,543.424ZM500.047,563.727C500.047,563.727 508.141,565.677 511.839,568.792C510.558,565.652 506.327,563.962 504.54,563.683C505.43,563.202 506.773,562.963 508.19,562.894C505.893,561.811 502.479,560.701 498.882,560.455C494.112,560.191 492.643,565.023 485.34,566.66C486.16,566.029 487.293,564.644 488.71,563.048C485.348,565.608 482.923,567.958 479.176,568.646C479.176,568.646 481.472,566.048 481.837,564.464C476.343,566.162 474.03,567.964 471.32,571.333C468.555,574.773 481.315,571.971 481.315,571.971L477.649,573.847C485.733,574.202 487.919,575.432 486.936,577.266C491.812,577.959 496.859,570.758 496.859,570.758C496.859,570.758 496.933,571.762 496.334,573.178C500.114,568.67 498.706,561.322 498.706,561.322C499.249,562.161 499.687,562.965 500.047,563.741L500.047,563.727ZM511.154,583.516C508.89,597.352 499.574,617.067 463.556,628.192C427.537,617.067 418.221,597.352 415.957,583.516C415.669,581.403 415.459,576.925 418.331,574.702C418.331,586.497 421.649,611.86 463.556,624.802C505.462,611.86 508.78,586.497 508.78,574.702C511.651,576.925 511.442,581.403 511.154,583.516ZM422.571,563.683C421.681,563.202 420.339,562.963 418.921,562.894C421.218,561.811 424.632,560.701 428.23,560.455C432.999,560.191 434.468,565.023 441.771,566.66C440.952,566.029 439.818,564.644 438.401,563.048C441.763,565.608 444.188,567.958 447.936,568.646C447.936,568.646 445.64,566.048 445.274,564.464C450.769,566.162 453.082,567.964 455.791,571.333C458.556,574.773 445.796,571.971 445.796,571.971L449.463,573.847C441.379,574.202 439.193,575.432 440.175,577.266C435.299,577.959 430.252,570.758 430.252,570.758C430.252,570.758 430.179,571.762 430.778,573.178C426.998,568.67 428.405,561.322 428.405,561.322C427.862,562.161 427.424,562.965 427.064,563.741L427.064,563.727C427.064,563.727 418.97,565.677 415.272,568.792C416.553,565.652 420.784,563.962 422.571,563.683ZM433.774,547.398C433.774,547.398 432.334,545.905 431.981,543.941C431.629,541.975 431.781,537.922 433.599,536.164C433.294,539.783 435.185,540.518 434.174,544.695C434.35,543.839 435.142,542.941 435.11,543.424C435.078,543.907 435.18,545.977 436.125,547.253C434.7,546.793 433.345,545.307 433.345,545.307L433.774,547.398ZM415.272,528.957C418.259,527.455 421.575,526.094 425.162,524.895C426.249,526.219 427.483,527.409 428.793,528.504C427.862,528.626 426.6,528.686 424.73,528.434C427.007,530.438 431.227,530.396 432.848,531.547C434.078,532.242 435.171,532.919 436.146,533.572C441.357,537.767 442.084,541.193 441.064,542.732C441.229,542.097 440.379,540.228 439.137,539.381C438.007,538.611 437.246,541.108 437.303,542.817C436.997,542.581 436.694,542.289 436.403,541.939C436.415,539.404 436.015,535.805 434.193,533.656C432.751,533.214 430.582,536.578 429.645,540.739C429.818,540.029 429.575,538.379 429.575,538.379C429.575,538.379 427.698,541.458 428.143,544.632C428.135,546.032 426.51,546.467 425.185,544.646C423.941,542.935 419.946,536.179 415.272,533.788L415.272,528.957ZM432.425,511.39C432.928,509.111 433.702,506.807 434.674,504.618C433.661,507.568 433.073,510.808 432.894,514.258C432.621,519.567 433.543,524.381 436,528.952C436.167,529.26 436.329,529.567 436.491,529.872C432.699,525.474 430.906,518.28 432.425,511.39ZM459.384,545.83C457.92,546.951 449.907,549.05 447.955,548.699C448.455,547.061 450.049,546.695 450.049,546.695C452.326,546.376 456.47,546.904 459.384,545.83ZM444.721,536.585C447.522,539.591 450.391,542.665 449.912,544.714C451.29,544.586 452.235,543.621 452.235,543.621C452.235,543.621 451.825,545.14 449.23,546.422C447.194,547.427 447.522,549.974 444.721,550.11C447.027,548.729 446.634,545.556 448.479,545.14C449.657,542.903 444.721,536.585 444.721,536.585ZM440.911,542.935L440.911,542.934L440.912,542.934L440.911,542.935ZM441.562,538.096C444.064,540.872 444.08,542.607 444.08,542.607C444.238,545.16 442.028,548.497 438.593,544.943C441.628,545.98 443.807,542.776 441.562,538.096ZM449.801,564.237C449.801,564.237 445.007,563.789 443.465,558.912C443.465,558.912 444.176,560.117 445.354,561.141C444.167,559.124 445.435,557.322 445.435,557.322C445.435,557.322 447.095,558.597 448.034,560.012C448.973,561.426 450.6,564.994 450.6,564.994L448.995,563.103L449.801,564.237ZM457.919,576.632C456.888,576.623 458.174,575.557 458.174,575.557C458.174,575.557 457.053,572.388 458.071,573.488C459.089,574.588 461.32,577.469 461.32,577.469L459.699,576.328C459.699,576.328 459.956,577.012 460.981,577.992C459.912,581.256 457.298,581.322 457.298,581.322L457.323,580.96C455.793,581.159 454.227,579.554 448.364,579.045C450.991,578.989 453.764,579.317 455.96,579.554C457.045,579.671 457.854,578.023 457.854,578.023C457.854,578.023 457.919,579.222 457.39,579.569C458.733,579.053 458.949,576.641 457.919,576.632ZM469.813,581.322C469.813,581.322 467.2,581.256 466.13,577.992C467.156,577.012 467.413,576.328 467.413,576.328L465.791,577.469C465.791,577.469 468.024,574.588 469.041,573.488C470.059,572.388 468.938,575.557 468.938,575.557C468.938,575.557 470.224,576.623 469.193,576.632C468.162,576.641 468.379,579.053 469.722,579.569C469.193,579.222 469.258,578.023 469.258,578.023C469.258,578.023 470.066,579.671 471.151,579.554C473.348,579.317 476.121,578.989 478.747,579.045C472.884,579.554 471.318,581.159 469.789,580.96L469.813,581.322ZM463.556,540.94C455.912,540.94 449.051,537.54 444.392,532.179C447.6,537.162 451.076,540.973 451.057,543.025C452.98,542.342 454.712,541.351 455.15,540.393C455.787,538.999 454.835,544.241 451.47,545.983C455.055,545.496 459.66,546.555 462.254,543.735C461.196,549.464 453.059,548.028 448.541,551.079C448.399,551.188 448.253,551.294 448.101,551.399C448.946,552.131 449.574,553.045 449.88,554.22C451.107,558.944 451.627,557.978 452.193,560.382C452.758,562.785 451.719,563.353 454.107,567.062C456.495,570.773 457.985,572.967 459.101,573.952C460.217,574.938 461.634,576.853 461.773,577.499C461.911,578.146 460.272,580.856 458.574,581.742C457.202,582.091 455.766,581.552 455.766,581.552C455.766,581.552 455.601,581.465 455.316,581.323C454.37,580.863 452.144,580.12 450.281,579.919C451.085,580.601 451.743,581.244 451.947,581.716C452.631,583.287 451.059,582.477 450.581,582.533C447.14,582.938 447.123,580.386 440.716,579.713C435.08,579.12 428.025,576.428 426.279,571.141L426.243,571.15C425.729,569.145 424.746,569.187 424.339,570.839C421.412,585.574 428.497,611.12 463.556,621.949C498.614,611.12 505.7,585.574 502.772,570.839C502.365,569.187 501.383,569.145 500.868,571.15L500.833,571.141C499.086,576.428 492.031,579.12 486.395,579.713C479.989,580.386 479.971,582.938 476.53,582.533C476.053,582.477 474.481,583.287 475.164,581.716C475.37,581.244 476.027,580.601 476.832,579.919C474.967,580.12 472.743,580.863 471.795,581.323C471.511,581.465 471.345,581.552 471.345,581.552C471.345,581.552 469.911,582.091 468.537,581.742C466.839,580.856 465.2,578.146 465.339,577.499C465.477,576.853 466.895,574.938 468.01,573.952C469.127,572.967 470.617,570.773 473.005,567.062C475.392,563.353 474.353,562.785 474.919,560.382C475.484,557.978 476.004,558.944 477.231,554.22C477.537,553.045 478.165,552.131 479.01,551.399C478.859,551.294 478.712,551.188 478.57,551.079C474.053,548.028 465.916,549.464 464.858,543.735C467.451,546.555 472.057,545.496 475.642,545.983C472.276,544.241 471.324,538.999 471.962,540.393C472.4,541.351 474.131,542.342 476.055,543.025C476.036,540.973 479.51,537.162 482.719,532.18C478.059,537.541 471.2,540.94 463.556,540.94ZM463.556,492.172C450.667,492.172 440.18,502.658 440.18,515.547C440.18,528.437 450.667,538.923 463.556,538.923C476.445,538.923 486.931,528.437 486.931,515.547C486.931,502.658 476.445,492.172 463.556,492.172ZM477.062,546.695C474.786,546.376 470.642,546.904 467.727,545.83C469.192,546.951 477.204,549.05 479.157,548.699C478.656,547.061 477.062,546.695 477.062,546.695ZM482.39,536.585C482.39,536.585 477.454,542.903 478.633,545.14C480.478,545.556 480.085,548.729 482.39,550.11C479.589,549.974 479.918,547.427 477.881,546.422C475.286,545.14 474.877,543.621 474.877,543.621C474.877,543.621 475.821,544.586 477.199,544.714C476.72,542.665 479.589,539.591 482.39,536.585ZM476.511,564.994C476.511,564.994 478.137,561.426 479.077,560.012C480.017,558.597 481.675,557.322 481.675,557.322C481.675,557.322 482.943,559.124 481.757,561.141C482.935,560.117 483.646,558.912 483.646,558.912C482.104,563.789 477.31,564.237 477.31,564.237L478.117,563.103L476.511,564.994ZM486.2,542.934L486.2,542.935L486.2,542.934ZM488.519,544.943C485.084,548.497 482.873,545.16 483.031,542.607C483.031,542.607 483.048,540.872 485.549,538.096C483.305,542.776 485.483,545.98 488.519,544.943ZM491.11,528.952C493.568,524.381 494.49,519.567 494.216,514.258C494.039,510.808 493.451,507.568 492.436,504.618C493.409,506.807 494.184,509.111 494.686,511.39C496.205,518.28 494.412,525.474 490.62,529.872C490.782,529.567 490.945,529.26 491.11,528.952Z" style="fill:white;"/>
                    </g>
                    <g transform="matrix(26.0417,0,0,19.5312,-11671.8,-10657.4)">
                        <path d="M511.839,533.788C507.166,536.179 503.17,542.935 501.926,544.646C500.6,546.467 498.976,546.032 498.968,544.632C499.413,541.458 497.536,538.379 497.536,538.379C497.536,538.379 497.292,540.029 497.467,540.739C496.529,536.578 494.36,533.214 492.918,533.656C491.096,535.805 490.697,539.404 490.708,541.939C490.417,542.289 490.114,542.581 489.809,542.817C489.865,541.108 489.104,538.611 487.974,539.381C486.732,540.228 485.883,542.097 486.047,542.732C485.027,541.193 485.754,537.767 490.965,533.572C491.94,532.919 493.034,532.242 494.263,531.547L494.264,531.547C495.884,530.396 500.104,530.438 502.381,528.434C500.511,528.686 499.25,528.626 498.318,528.504C499.627,527.409 500.862,526.219 501.949,524.895C505.536,526.094 508.852,527.455 511.839,528.957L511.839,533.788ZM492.002,543.424C491.968,542.941 492.762,543.839 492.937,544.695C491.926,540.518 493.818,539.783 493.513,536.164C495.33,537.922 495.482,541.975 495.13,543.941C494.778,545.905 493.337,547.398 493.337,547.398L493.767,545.307C493.767,545.307 492.411,546.793 490.987,547.253C491.932,545.977 492.034,543.907 492.002,543.424ZM500.047,563.727L500.047,563.741C499.687,562.965 499.249,562.161 498.706,561.322C498.706,561.322 500.114,568.67 496.334,573.178C496.933,571.762 496.859,570.758 496.859,570.758C496.859,570.758 491.812,577.959 486.936,577.266C487.919,575.432 485.733,574.202 477.649,573.847L481.315,571.971C481.315,571.971 468.555,574.773 471.32,571.333C474.03,567.964 476.343,566.162 481.837,564.464C481.472,566.048 479.176,568.646 479.176,568.646C482.923,567.958 485.348,565.608 488.71,563.048C487.293,564.644 486.16,566.029 485.34,566.66C492.643,565.023 494.112,560.191 498.882,560.455C502.479,560.701 505.893,561.811 508.19,562.894C506.773,562.963 505.43,563.202 504.54,563.683C506.327,563.962 510.558,565.652 511.839,568.792C508.141,565.677 500.047,563.727 500.047,563.727ZM511.154,583.516C508.89,597.352 499.574,617.067 463.556,628.192C427.537,617.067 418.221,597.352 415.957,583.516C415.669,581.403 415.459,576.925 418.331,574.702C418.331,586.497 421.649,611.86 463.556,624.802C505.462,611.86 508.78,586.497 508.78,574.702C511.651,576.925 511.442,581.403 511.154,583.516ZM422.571,563.683C421.681,563.202 420.339,562.963 418.921,562.894C421.218,561.811 424.632,560.701 428.23,560.455C432.999,560.191 434.468,565.023 441.771,566.66C440.952,566.029 439.818,564.644 438.401,563.048C441.763,565.608 444.188,567.958 447.936,568.646C447.936,568.646 445.64,566.048 445.274,564.464C450.769,566.162 453.082,567.964 455.791,571.333C458.556,574.773 445.796,571.971 445.796,571.971L449.463,573.847C441.379,574.202 439.193,575.432 440.175,577.266C435.299,577.959 430.252,570.758 430.252,570.758C430.252,570.758 430.179,571.762 430.778,573.178C426.998,568.67 428.405,561.322 428.405,561.322C427.862,562.161 427.424,562.965 427.064,563.741L427.064,563.727C427.064,563.727 418.97,565.677 415.272,568.792C416.553,565.652 420.784,563.962 422.571,563.683ZM433.774,547.398C433.774,547.398 432.334,545.905 431.981,543.941C431.629,541.975 431.781,537.922 433.599,536.164C433.294,539.783 435.185,540.518 434.174,544.695C434.35,543.839 435.142,542.941 435.11,543.424C435.078,543.907 435.18,545.977 436.125,547.253C434.7,546.793 433.345,545.307 433.345,545.307L433.774,547.398ZM415.272,528.957C418.259,527.455 421.575,526.094 425.162,524.895C426.249,526.219 427.483,527.409 428.793,528.504C427.862,528.626 426.6,528.686 424.73,528.434C427.007,530.438 431.227,530.396 432.848,531.547C434.078,532.242 435.171,532.919 436.146,533.572C441.357,537.767 442.084,541.193 441.064,542.732C441.229,542.097 440.379,540.228 439.137,539.381C438.007,538.611 437.246,541.108 437.303,542.817C436.997,542.581 436.694,542.289 436.403,541.939C436.415,539.404 436.015,535.805 434.193,533.656C432.751,533.214 430.582,536.578 429.645,540.739C429.818,540.029 429.575,538.379 429.575,538.379C429.575,538.379 427.698,541.458 428.143,544.632C428.135,546.032 426.51,546.467 425.185,544.646C423.941,542.935 419.946,536.179 415.272,533.788L415.272,528.957ZM432.425,511.39C432.928,509.111 433.702,506.807 434.674,504.618C433.661,507.568 433.073,510.808 432.894,514.258C432.621,519.567 433.543,524.381 436,528.952C436.167,529.26 436.329,529.567 436.491,529.872C432.699,525.474 430.906,518.28 432.425,511.39ZM459.384,545.83C457.92,546.951 449.907,549.05 447.955,548.699C448.455,547.061 450.049,546.695 450.049,546.695C452.326,546.376 456.47,546.904 459.384,545.83ZM444.721,536.585C447.522,539.591 450.391,542.665 449.912,544.714C451.29,544.586 452.235,543.621 452.235,543.621C452.235,543.621 451.825,545.14 449.23,546.422C447.194,547.427 447.522,549.974 444.721,550.11C447.027,548.729 446.634,545.556 448.479,545.14C449.657,542.903 444.721,536.585 444.721,536.585ZM440.911,542.935L440.911,542.934L440.912,542.934L440.911,542.935ZM441.562,538.096C444.064,540.872 444.08,542.607 444.08,542.607C444.238,545.16 442.028,548.497 438.593,544.943C441.628,545.98 443.807,542.776 441.562,538.096ZM449.801,564.237C449.801,564.237 445.007,563.789 443.465,558.912C443.465,558.912 444.176,560.117 445.354,561.141C444.167,559.124 445.435,557.322 445.435,557.322C445.435,557.322 447.095,558.597 448.034,560.012C448.973,561.426 450.6,564.994 450.6,564.994L448.995,563.103L449.801,564.237ZM457.919,576.632C456.888,576.623 458.174,575.557 458.174,575.557C458.174,575.557 457.053,572.388 458.071,573.488C459.089,574.588 461.32,577.469 461.32,577.469L459.699,576.328C459.699,576.328 459.956,577.012 460.981,577.992C459.912,581.256 457.298,581.322 457.298,581.322L457.323,580.96C455.793,581.159 454.227,579.554 448.364,579.045C450.991,578.989 453.764,579.317 455.96,579.554C457.045,579.671 457.854,578.023 457.854,578.023C457.854,578.023 457.919,579.222 457.39,579.569C458.733,579.053 458.949,576.641 457.919,576.632ZM469.813,581.322C469.813,581.322 467.2,581.256 466.13,577.992C467.156,577.012 467.413,576.328 467.413,576.328L465.791,577.469C465.791,577.469 468.024,574.588 469.041,573.488C470.059,572.388 468.938,575.557 468.938,575.557C468.938,575.557 470.224,576.623 469.193,576.632C468.162,576.641 468.379,579.053 469.722,579.569C469.193,579.222 469.258,578.023 469.258,578.023C469.258,578.023 470.066,579.671 471.151,579.554C473.348,579.317 476.121,578.989 478.747,579.045C472.884,579.554 471.318,581.159 469.789,580.96L469.813,581.322ZM463.556,540.94C471.2,540.94 478.059,537.541 482.719,532.18C479.51,537.162 476.036,540.973 476.055,543.025C474.131,542.342 472.4,541.351 471.962,540.393C471.324,538.999 472.276,544.241 475.642,545.983C472.057,545.496 467.451,546.555 464.858,543.735C465.916,549.464 474.053,548.028 478.57,551.079C478.712,551.188 478.859,551.294 479.01,551.399C478.165,552.131 477.537,553.045 477.231,554.22C476.004,558.944 475.484,557.978 474.919,560.382C474.353,562.785 475.392,563.353 473.005,567.062C470.617,570.773 469.127,572.967 468.01,573.952C466.895,574.938 465.477,576.853 465.339,577.499C465.2,578.146 466.839,580.856 468.537,581.742C469.911,582.091 471.345,581.552 471.345,581.552C471.345,581.552 471.511,581.465 471.795,581.323C472.743,580.863 474.967,580.12 476.832,579.919C476.027,580.601 475.37,581.244 475.164,581.716C474.481,583.287 476.053,582.477 476.53,582.533C479.971,582.938 479.989,580.386 486.395,579.713C492.031,579.12 499.086,576.428 500.833,571.141L500.868,571.15C501.383,569.145 502.365,569.187 502.772,570.839C505.7,585.574 498.614,611.12 463.556,621.949C428.497,611.12 421.412,585.574 424.339,570.839C424.746,569.187 425.729,569.145 426.243,571.15L426.279,571.141C428.025,576.428 435.08,579.12 440.716,579.713C447.123,580.386 447.14,582.938 450.581,582.533C451.059,582.477 452.631,583.287 451.947,581.716C451.743,581.244 451.085,580.601 450.281,579.919C452.144,580.12 454.37,580.863 455.316,581.323C455.601,581.465 455.766,581.552 455.766,581.552C455.766,581.552 457.202,582.091 458.574,581.742C460.272,580.856 461.911,578.146 461.773,577.499C461.634,576.853 460.217,574.938 459.101,573.952C457.985,572.967 456.495,570.773 454.107,567.062C451.719,563.353 452.758,562.785 452.193,560.382C451.627,557.978 451.107,558.944 449.88,554.22C449.574,553.045 448.946,552.131 448.101,551.399C448.253,551.294 448.399,551.188 448.541,551.079C453.059,548.028 461.196,549.464 462.254,543.735C459.66,546.555 455.055,545.496 451.47,545.983C454.835,544.241 455.787,538.999 455.15,540.393C454.712,541.351 452.98,542.342 451.057,543.025C451.076,540.973 447.6,537.162 444.392,532.179C449.051,537.54 455.912,540.94 463.556,540.94ZM463.556,492.172C476.445,492.172 486.931,502.658 486.931,515.547C486.931,528.437 476.445,538.923 463.556,538.923C450.667,538.923 440.18,528.437 440.18,515.547C440.18,502.658 450.667,492.172 463.556,492.172ZM477.062,546.695C477.062,546.695 478.656,547.061 479.157,548.699C477.204,549.05 469.192,546.951 467.727,545.83C470.642,546.904 474.786,546.376 477.062,546.695ZM482.39,536.585C482.39,536.585 477.454,542.903 478.633,545.14C480.478,545.556 480.085,548.729 482.39,550.11C479.589,549.974 479.918,547.427 477.881,546.422C475.286,545.14 474.877,543.621 474.877,543.621C474.877,543.621 475.821,544.586 477.199,544.714C476.72,542.665 479.589,539.591 482.39,536.585ZM476.511,564.994C476.511,564.994 478.137,561.426 479.077,560.012C480.017,558.597 481.675,557.322 481.675,557.322C481.675,557.322 482.943,559.124 481.757,561.141C482.935,560.117 483.646,558.912 483.646,558.912C482.104,563.789 477.31,564.237 477.31,564.237L478.117,563.103L476.511,564.994ZM486.2,542.934L486.2,542.935L486.2,542.934ZM488.519,544.943C485.084,548.497 482.873,545.16 483.031,542.607C483.031,542.607 483.048,540.872 485.549,538.096C483.305,542.776 485.483,545.98 488.519,544.943ZM491.11,528.952C493.568,524.381 494.49,519.567 494.216,514.258C494.039,510.808 493.451,507.568 492.436,504.618C493.409,506.807 494.184,509.111 494.686,511.39C496.205,518.28 494.412,525.474 490.62,529.872C490.782,529.567 490.945,529.26 491.11,528.952ZM513.426,525.803C510.51,524.337 507.348,523.027 504.002,521.863C505.178,519.701 505.956,517.209 506.116,514.258C504.663,517.504 503.032,520.014 501.35,522.001C501.069,520.511 500.025,519.197 500.196,517.05C498.01,519.509 500.833,522.566 498.647,524.752C496.668,526.483 494.709,527.66 492.967,528.612C494.472,526.351 495.133,523.696 495.541,520.704C495.943,517.766 495.772,514.576 495.033,511.223C494.394,508.325 493.354,505.449 492.027,502.807L492.026,502.805C490.804,500.077 492.15,498.09 490.182,494.118C490.006,493.764 489.785,493.799 489.856,494.135C490.571,497.476 489.114,496.935 489.404,498.429C489.039,497.915 488.663,497.42 488.276,496.945L488.139,496.778L487.917,496.512C487.764,496.333 487.607,496.154 487.449,495.978L487.303,495.816L487.096,495.593L486.979,495.47L486.978,495.472C485.577,494.013 483.971,492.732 482.15,491.662C481.12,491.057 480.843,491.457 481.755,492.241C486.768,496.541 490.139,502.39 491.361,508.834C489.253,502.205 485.618,500.724 486.902,502.536C489.43,506.105 493.003,515.381 489.571,525.22C488.619,527.323 487.359,529.38 485.762,531.445C488.111,527.974 488.55,523.334 488.429,520.67C488.77,519.014 488.948,517.301 488.948,515.547C488.948,501.545 477.557,490.154 463.556,490.154C449.554,490.154 438.162,501.545 438.162,515.547C438.162,517.301 438.342,519.014 438.682,520.67C438.561,523.334 439.001,527.974 441.349,531.445C439.754,529.38 438.492,527.323 437.54,525.22C434.109,515.381 437.681,506.105 440.209,502.536C441.494,500.724 437.858,502.205 435.751,508.834C436.972,502.39 440.343,496.541 445.356,492.241C446.269,491.457 445.991,491.057 444.962,491.662C443.14,492.732 441.534,494.013 440.134,495.472L440.132,495.47L440.016,495.593L439.808,495.816L439.663,495.978C439.504,496.154 439.348,496.333 439.195,496.512L438.973,496.778L438.835,496.945C438.448,497.42 438.072,497.915 437.706,498.429C437.998,496.935 436.541,497.476 437.255,494.135C437.327,493.799 437.105,493.764 436.93,494.118C434.962,498.09 436.308,500.077 435.085,502.805L435.084,502.807C433.757,505.449 432.718,508.325 432.079,511.223C431.34,514.576 431.168,517.766 431.57,520.704C431.978,523.696 432.641,526.351 434.144,528.612C432.402,527.66 430.444,526.483 428.465,524.752C426.279,522.566 429.102,519.509 426.916,517.05C427.086,519.197 426.043,520.511 425.761,522.001C424.079,520.014 422.449,517.504 420.996,514.258C421.156,517.209 421.933,519.701 423.109,521.863C419.763,523.027 416.601,524.337 413.685,525.803L411.741,526.781L411.741,574.702C411.741,585.384 414.334,594.607 419.667,602.897C427.888,615.678 442.304,625.323 462.514,631.565L463.556,631.886L464.597,631.565C484.808,625.323 499.223,615.678 507.445,602.897C512.776,594.607 515.37,585.384 515.37,574.702L515.37,526.781L513.426,525.803Z" style="fill:rgb(31,33,35);"/>
                    </g>
                    <g transform="matrix(26.0417,0,0,19.5312,-11671.8,-10657.4)">
                        <path d="M418.331,574.702C418.331,586.497 421.649,611.86 463.556,624.802L463.556,628.192C427.537,617.067 418.221,597.352 415.957,583.516C415.669,581.403 415.459,576.925 418.331,574.702Z" style="fill:rgb(139,30,39);"/>
                    </g>
                    <g transform="matrix(26.0417,0,0,19.5312,-11671.8,-10657.4)">
                        <path d="M500.868,571.15L500.833,571.141C499.086,576.428 492.031,579.12 486.395,579.713C479.989,580.386 479.971,582.938 476.53,582.533C476.053,582.477 474.481,583.287 475.164,581.716C475.37,581.244 476.027,580.601 476.832,579.919C474.967,580.12 472.743,580.863 471.795,581.323C471.511,581.465 471.345,581.552 471.345,581.552C471.345,581.552 469.911,582.091 468.537,581.742C466.839,580.856 465.2,578.146 465.339,577.499C465.477,576.853 466.895,574.938 468.01,573.952C469.127,572.967 470.617,570.773 473.005,567.062C475.392,563.353 474.353,562.785 474.919,560.382C475.484,557.978 476.004,558.944 477.231,554.22C477.537,553.045 478.165,552.131 479.01,551.399C478.859,551.294 478.712,551.188 478.57,551.079C474.053,548.028 465.916,549.464 464.858,543.735C467.451,546.555 472.057,545.496 475.642,545.983C472.276,544.241 471.324,538.999 471.962,540.393C472.4,541.351 474.131,542.342 476.055,543.025C476.036,540.973 479.51,537.162 482.719,532.18C478.059,537.541 471.2,540.94 463.556,540.94L463.556,621.949C498.614,611.12 505.7,585.574 502.772,570.839C502.365,569.187 501.383,569.145 500.868,571.15ZM501.949,524.895C500.862,526.219 499.627,527.409 498.318,528.504C499.25,528.626 500.511,528.686 502.381,528.434C500.104,530.438 495.884,530.396 494.264,531.547L494.263,531.547C493.034,532.242 491.94,532.919 490.965,533.572C485.754,537.767 485.027,541.193 486.047,542.732C485.883,542.097 486.732,540.228 487.974,539.381C489.104,538.611 489.865,541.108 489.809,542.817C490.114,542.581 490.417,542.289 490.708,541.939C490.697,539.404 491.096,535.805 492.918,533.656C494.36,533.214 496.529,536.578 497.467,540.739C497.292,540.029 497.536,538.379 497.536,538.379C497.536,538.379 499.413,541.458 498.968,544.632C498.976,546.032 500.6,546.467 501.926,544.646C503.17,542.935 507.166,536.179 511.839,533.788L511.839,528.957C508.852,527.455 505.536,526.094 501.949,524.895ZM486.2,542.934L486.2,542.935L486.2,542.934ZM483.031,542.607C483.031,542.607 483.048,540.872 485.549,538.096C483.305,542.776 485.483,545.98 488.519,544.943C485.084,548.497 482.873,545.16 483.031,542.607Z" style="fill:rgb(139,30,39);"/>
                    </g>
                    <g transform="matrix(26.0417,0,0,19.5312,-11671.8,-10657.4)">
                        <path d="M455.286,513.718C456.795,513.318 458.249,512.843 459.631,512.307C456.315,504.927 457.415,498.343 458.264,495.298C455.32,496.077 452.625,497.479 450.331,499.355C450.083,500.526 449.202,506.125 452.928,514.262C453.713,514.105 454.499,513.923 455.286,513.718Z" style="fill:rgb(31,33,35);"/>
                    </g>
                    <g transform="matrix(26.0417,0,0,19.5312,-11671.8,-10657.4)">
                        <path d="M443.19,510.614C442.788,512.238 442.572,513.934 442.572,515.681C442.572,518.006 442.956,520.243 443.655,522.339C443.613,519.165 444.24,516.632 444.473,515.81C444.186,515.101 443.448,513.079 443.19,510.614Z" style="fill:rgb(31,33,35);"/>
                    </g>
                    <g transform="matrix(26.0417,0,0,19.5312,-11671.8,-10657.4)">
                        <path d="M468.733,506.778C468.14,505.313 466.701,500.894 468.089,495.07C466.658,494.762 465.176,494.597 463.655,494.597C462.407,494.597 461.185,494.712 459.996,494.921C459.269,497.191 457.611,504.07 461.054,511.715C464.18,510.347 466.838,508.65 468.733,506.778Z" style="fill:rgb(139,30,39);"/>
                    </g>
                    <g transform="matrix(26.0417,0,0,19.5312,-11671.8,-10657.4)">
                        <path d="M451.369,514.547C448.604,508.358 448.364,503.614 448.555,500.988C447.213,502.366 446.054,503.924 445.127,505.627C443.923,509.348 445.293,513.616 445.81,514.998C447.587,515.004 449.459,514.853 451.369,514.547Z" style="fill:rgb(139,30,39);"/>
                    </g>
                    <g transform="matrix(26.0417,0,0,19.5312,-11671.8,-10657.4)">
                        <path d="M484.54,512.831C483.413,504.534 477.445,497.759 469.583,495.451C469.343,496.46 469.196,497.425 469.119,498.334C470.519,498.754 474.003,499.986 477.432,502.678C480.092,504.768 483.031,508.024 484.54,512.831Z" style="fill:rgb(31,33,35);"/>
                    </g>
                    <g transform="matrix(26.0417,0,0,19.5312,-11671.8,-10657.4)">
                        <path d="M476.526,503.925C473.585,501.604 470.533,500.415 469.05,499.929C469.046,503.28 469.926,505.646 470.234,506.371C477.207,509.547 481.698,516.355 481.698,523.801C481.698,524.889 481.601,525.96 481.417,527.016C482.535,525.27 483.402,523.351 483.97,521.306C484.404,514.014 481.9,508.166 476.526,503.925Z" style="fill:rgb(31,33,35);"/>
                    </g>
                    <g transform="matrix(26.0417,0,0,19.5312,-11671.8,-10657.4)">
                        <path d="M462.716,532.126C460.587,532.511 458.469,532.702 456.418,532.702C454.348,532.702 452.35,532.506 450.479,532.121C454.09,535.023 458.672,536.764 463.655,536.764C469.656,536.764 475.073,534.24 478.916,530.203C479.738,528.163 480.158,526.011 480.158,523.801C480.158,523.295 480.134,522.795 480.089,522.296C477.092,526.911 470.478,530.725 462.716,532.126Z" style="fill:rgb(31,33,35);"/>
                    </g>
                    <g transform="matrix(26.0417,0,0,19.5312,-11671.8,-10657.4)">
                        <path d="M456.667,523.139C465.359,521.569 472.941,518.205 477.131,514.089C475.345,511.47 472.845,509.299 469.822,507.873C466.65,511.001 461.535,513.658 455.68,515.205C452.358,516.084 448.994,516.543 445.908,516.543L445.872,516.543C445.577,517.714 444.972,520.647 445.289,524.002C448.891,524.133 452.792,523.839 456.667,523.139Z" style="fill:rgb(31,33,35);"/>
                    </g>
                    <g transform="matrix(26.0417,0,0,19.5312,-11671.8,-10657.4)">
                        <path d="M462.443,530.612C470.76,529.109 477.637,524.782 479.676,519.796C479.305,518.265 478.725,516.795 477.96,515.425C473.507,519.644 465.756,523.061 456.939,524.653C453.572,525.261 450.179,525.572 446.968,525.572C446.474,525.572 445.986,525.564 445.501,525.549C445.58,525.984 445.676,526.422 445.793,526.862C446.467,527.936 447.233,528.947 448.084,529.88C452.179,531.284 457.267,531.546 462.443,530.612Z" style="fill:rgb(139,30,39);"/>
                    </g>
                    <g transform="matrix(26.0417,0,0,19.5312,-11671.8,-10657.4)">
                        <path d="M486.2,542.934L486.2,542.935L486.2,542.934ZM488.519,544.943C485.084,548.497 482.873,545.16 483.031,542.607C483.031,542.607 483.048,540.872 485.549,538.096C483.305,542.776 485.483,545.98 488.519,544.943Z" style="fill:white;"/>
                    </g>
                    <g transform="matrix(26.0417,0,0,19.5312,-11671.8,-10657.4)">
                        <path d="M463.556,608.279C465.697,608.279 467.429,610.012 467.429,612.153L467.429,616.975L475.966,616.975L474.938,603.063L475.966,597.846L471.697,597.846L463.556,588.124L455.414,597.846L451.146,597.846L452.174,603.063L451.146,616.975L459.683,616.975L459.683,612.153C459.683,610.012 461.415,608.279 463.556,608.279Z" style="fill:white;fill-rule:nonzero;"/>
                    </g>
                    <g transform="matrix(26.0417,0,0,19.5312,-11671.8,-10657.4)">
                        <clipPath id="_clip1">
                            <rect x="448.408" y="579.266" width="15.145" height="40.361"/>
                        </clipPath>
                        <g clip-path="url(#_clip1)">
                            <path d="M463.554,608.279C465.694,608.279 467.427,610.012 467.427,612.152L467.427,616.974L475.964,616.974L474.936,603.062L475.964,597.846L471.695,597.846L463.554,588.123L455.412,597.846L451.144,597.846L452.171,603.062L451.144,616.974L459.68,616.974L459.68,612.152C459.68,610.012 461.413,608.279 463.554,608.279Z" style="fill:rgb(31,33,35);fill-rule:nonzero;"/>
                        </g>
                    </g>
                </g>
            </g>
        </g>
    </g>
</svg>
