<?xml version="1.0" encoding="UTF-8" standalone="no"?>
<!DOCTYPE svg PUBLIC "-//W3C//DTD SVG 1.1//EN" "http://www.w3.org/Graphics/SVG/1.1/DTD/svg11.dtd">
<svg width="100%" height="100%" viewBox="0 0 257 256" version="1.1" xmlns="http://www.w3.org/2000/svg" xmlns:xlink="http://www.w3.org/1999/xlink" xml:space="preserve" xmlns:serif="http://www.serif.com/" style="fill-rule:evenodd;clip-rule:evenodd;stroke-linejoin:round;stroke-miterlimit:2;">
    <g transform="matrix(1,0,0,1,-6125,-1068)">
        <g transform="matrix(0.32,0,0,0.426667,6125.56,1068)">
            <rect id="vk-kuzbass" x="0" y="0" width="800" height="600" style="fill:none;"/>
            <g id="vk-kuzbass1" serif:id="vk-kuzbass">
                <g transform="matrix(0.162397,0,0,0.162397,337.292,50.369)">
                    <g transform="matrix(26.0417,0,0,19.5312,-11799.1,0)">
                        <path d="M420.27,129.561L422.258,129.283C423.178,129.154 423.946,129.232 424.571,129.518C425.294,128.994 426.132,128.654 427.059,128.524C427.815,128.419 428.483,128.477 429.055,128.688L429.089,128.701L429.249,128.306L439.118,126.926C439.153,126.767 439.198,126.606 439.253,126.444L439.699,125.135L443.428,124.614L447.04,124.11L447.555,124.038L446.888,125.84L450.73,125.304C451.042,125.202 451.368,125.127 451.705,125.08C452.461,124.974 453.13,125.032 453.702,125.244L453.736,125.257L453.895,124.861L476.1,121.758C476.135,121.599 476.18,121.438 476.235,121.275L476.681,119.967L480.41,119.446L484.022,118.941L484.536,118.869L483.869,120.672L506.289,117.539L504.097,123.464L503.613,123.532C503.67,123.707 503.712,123.889 503.738,124.078C503.829,124.725 503.73,125.442 503.443,126.219L503.122,127.085C502.743,128.111 502.164,128.955 501.399,129.594C500.62,130.245 499.681,130.658 498.597,130.81L494.235,131.42L491.407,131.815L486.441,132.509C486.315,132.534 486.186,132.555 486.054,132.574L482.143,133.121L482.147,133.109L481.233,133.237L478.878,133.566L475.692,134.011L471.74,134.563L452.357,137.272C452.231,137.297 452.103,137.319 451.971,137.337L450.175,137.588C449.881,137.68 449.575,137.749 449.259,137.793C448.944,137.837 448.646,137.852 448.363,137.841L448.06,137.883L448.083,137.819C447.791,137.787 447.517,137.723 447.262,137.629C447.137,137.583 447.018,137.53 446.903,137.471C446.215,137.939 445.42,138.242 444.526,138.367L438.71,139.18L434.758,139.732L430.873,140.275C430.746,140.3 430.616,140.322 430.484,140.34L428.688,140.591C428.394,140.683 428.088,140.752 427.771,140.796C427.457,140.84 427.158,140.856 426.875,140.843L426.572,140.886L426.596,140.822C426.304,140.79 426.029,140.726 425.775,140.632C425.667,140.592 425.563,140.547 425.463,140.498C424.781,140.945 423.998,141.236 423.123,141.358L414.184,142.607C416.044,137.575 417.08,134.773 418.939,129.747L420.27,129.561Z" style="fill:rgb(245,130,31);"/>
                    </g>
                    <g transform="matrix(26.0417,0,0,19.5312,-11799.1,0)">
                        <path d="M401.49,130.355C407.957,129.449 414.428,128.563 420.891,127.637L421.116,127.618C421.698,127.569 422.229,127.509 422.711,127.44C423.238,127.364 423.732,127.278 424.192,127.181L424.358,127.152L425.583,126.981L430.164,124.805C430.344,124.691 430.513,124.581 430.669,124.474C430.905,124.313 431.106,124.171 431.273,124.047C431.714,123.719 432.149,123.361 432.58,122.973C432.994,122.599 433.378,122.218 433.736,121.83L436.587,118.733L437.924,122.726C437.973,122.872 438.04,123.021 438.124,123.172C438.203,123.314 438.287,123.437 438.376,123.541L438.376,123.551C438.529,123.73 438.733,123.902 438.987,124.064C439.255,124.234 439.559,124.373 439.9,124.48C440.444,124.652 441.059,124.755 441.746,124.786C442.498,124.82 443.343,124.772 444.28,124.641C445.091,124.528 445.86,124.371 446.585,124.173C447.329,123.969 448.054,123.718 448.756,123.422L453.71,121.333L453.147,123.12L461.873,121.898C462.315,121.836 462.747,121.761 463.169,121.673C463.58,121.587 463.998,121.485 464.422,121.366L469.769,119.863L469.282,120.861L492.888,117.555L493.129,117.568C493.522,117.59 493.934,117.591 494.365,117.569C494.795,117.547 495.262,117.501 495.766,117.431C497.236,117.225 498.618,116.861 499.908,116.349C501.219,115.828 502.45,115.151 503.595,114.33L505.117,113.236L506.584,114.398C506.721,114.505 506.888,114.611 507.087,114.713C507.281,114.813 507.5,114.902 507.744,114.979C508.287,115.15 508.903,115.253 509.589,115.284C510.341,115.318 511.186,115.271 512.123,115.14C513.787,114.907 515.351,114.465 516.805,113.83C518.281,113.184 519.651,112.338 520.898,111.309C522.081,110.333 523.09,109.235 523.914,108.029C524.73,106.837 525.36,105.541 525.797,104.155L529.988,90.858C530.217,90.129 530.37,89.456 530.445,88.841C530.513,88.275 530.518,87.776 530.458,87.348C530.416,87.045 530.339,86.764 530.228,86.507C530.123,86.261 530.001,86.057 529.864,85.896C529.71,85.716 529.507,85.544 529.252,85.383C528.985,85.213 528.68,85.074 528.339,84.966C527.796,84.795 527.18,84.692 526.494,84.661C525.742,84.627 524.897,84.674 523.96,84.805C522.49,85.011 521.107,85.375 519.818,85.887C518.507,86.407 517.276,87.084 516.13,87.906L514.609,88.999L513.142,87.838C513.005,87.73 512.838,87.625 512.638,87.523C512.445,87.422 512.226,87.334 511.982,87.257C511.439,87.085 510.823,86.983 510.137,86.951C509.385,86.917 508.54,86.964 507.603,87.096C506.052,87.313 504.589,87.71 503.224,88.276C501.851,88.844 500.562,89.591 499.367,90.503L494.604,94.136L495.274,89.102L462.422,93.702L462.091,94.753L459.9,94.308C459.4,94.207 458.846,94.153 458.238,94.149C457.605,94.145 456.898,94.197 456.116,94.306C455.574,94.383 455.071,94.472 454.607,94.576C454.162,94.675 453.682,94.806 453.167,94.967L452.983,95.024L410.763,100.937L401.49,130.355ZM418.95,132.934L394.373,136.376L406.96,96.445L451.877,90.154L458.752,89.192L501.063,83.266L500.989,83.824C501.104,83.775 501.219,83.725 501.335,83.678C503.091,82.95 504.956,82.441 506.921,82.166C508.146,81.995 509.29,81.935 510.351,81.983C511.496,82.035 512.534,82.21 513.461,82.503C513.864,82.629 514.249,82.779 514.617,82.952C515.687,82.299 516.81,81.736 517.987,81.269C519.664,80.603 521.431,80.134 523.278,79.876C524.504,79.704 525.647,79.644 526.708,79.692C527.853,79.744 528.891,79.919 529.819,80.212C530.598,80.457 531.298,80.779 531.92,81.174C532.559,81.581 533.134,82.084 533.642,82.681C534.134,83.258 534.521,83.878 534.805,84.539C535.085,85.189 535.278,85.899 535.386,86.666C535.507,87.537 535.51,88.458 535.392,89.425C535.281,90.341 535.063,91.314 534.74,92.339L530.549,105.635C529.963,107.497 529.117,109.236 528.025,110.834C526.945,112.414 525.617,113.858 524.054,115.148C522.447,116.473 520.688,117.56 518.792,118.389C516.922,119.206 514.922,119.773 512.805,120.069C511.579,120.241 510.436,120.301 509.375,120.253C508.23,120.201 507.192,120.026 506.263,119.733C505.862,119.606 505.476,119.456 505.108,119.284C504.039,119.937 502.915,120.5 501.739,120.967C500.062,121.633 498.295,122.101 496.448,122.36C495.821,122.448 495.205,122.507 494.599,122.537C494.081,122.564 493.585,122.567 493.109,122.549L448.464,128.801C448.274,128.858 448.082,128.913 447.889,128.966C446.921,129.231 445.944,129.433 444.961,129.571C443.736,129.742 442.592,129.802 441.532,129.754C440.386,129.702 439.348,129.527 438.42,129.234C437.642,128.989 436.941,128.668 436.319,128.272C435.896,128.003 435.502,127.692 435.136,127.339C434.85,127.572 434.549,127.806 434.233,128.041C433.951,128.251 433.697,128.433 433.473,128.585C433.2,128.772 432.938,128.943 432.688,129.099L432.58,129.167L427.03,131.803L425.117,132.071C424.549,132.188 423.98,132.288 423.412,132.369C422.769,132.462 422.141,132.534 421.525,132.586L421.3,132.606L418.95,132.934Z" style="fill:rgb(245,130,31);"/>
                    </g>
                    <g transform="matrix(26.0417,0,0,19.5312,-11799.1,0)">
                        <path d="M411.195,100.281C403.622,81.92 402.153,60.078 408.744,33.642L409.077,32.306L410.427,31.966C433.32,26.205 455.508,22.414 477.039,20.455C498.599,18.494 519.485,18.366 539.748,19.932L541.974,20.104L542.202,22.31C544.449,44.041 534.41,71.421 517.065,95.304C500.703,117.833 477.785,137.346 452.516,146.129L451.329,146.541L450.233,145.781C432.44,133.447 418.779,118.664 411.195,100.281ZM413.278,36.442C407.331,61.203 408.758,81.592 415.795,98.653C422.794,115.62 435.383,129.405 451.809,141.006C475.667,132.357 497.348,113.724 512.956,92.232C529.065,70.05 538.648,44.922 537.401,24.72C518.09,23.353 498.233,23.538 477.784,25.398C456.929,27.295 435.442,30.934 413.278,36.442Z" style="fill:rgb(245,130,31);"/>
                    </g>
                    <g transform="matrix(26.0417,0,0,19.5312,-11799.1,0)">
                        <path d="M411.174,34.374C398.259,86.176 416.814,119.684 451.569,143.778C502.564,126.055 543.967,63.57 539.711,22.41C499.424,19.297 456.712,22.913 411.174,34.374Z" style="fill:rgb(35,31,32);"/>
                    </g>
                    <g transform="matrix(26.0417,0,0,19.5312,-11799.1,0)">
                        <path d="M416.709,40.406C405.74,84.398 423.618,112.855 453.134,133.316C496.44,118.264 533.191,65.112 529.577,30.157C495.363,27.513 455.38,30.673 416.709,40.406Z" style="fill:rgb(209,213,211);"/>
                    </g>
                    <g transform="matrix(26.0417,0,0,19.5312,-11799.1,0)">
                        <path d="M454.136,132.953C487.529,120.866 531.878,71.002 528.03,33.793C494.953,31.237 457.129,34.292 419.742,43.701C409.332,85.457 426.529,113.253 454.136,132.953Z" style="fill:white;"/>
                    </g>
                    <g transform="matrix(26.0417,0,0,19.5312,-11799.1,0)">
                        <path d="M441.531,98.336C440.264,97.303 439.056,96.224 437.935,95.093L439.922,100.352L431.421,91.364C429.272,89.091 427.848,87.463 426.784,85.388C426.408,84.655 426.09,83.89 425.814,83.048L423.489,86.272L423.091,79.271C423.047,78.497 422.719,77.11 422.287,75.57C422.098,74.897 421.892,74.206 421.681,73.527L419.794,71.345C418.275,69.588 416.804,66.141 416.423,62.524C416.117,59.623 416.473,56.531 417.988,53.939L417.998,53.939C418.539,53.013 418.515,52.884 418.489,52.748C418.308,51.784 418.117,50.769 419.339,48.349C418.328,47.894 417.471,47.278 416.775,46.337L415.306,44.352L417.272,42.869C418.113,42.234 419.113,41.741 420.227,41.191C422.008,40.312 424.169,39.246 425.666,37.318C425.349,36.879 425.043,36.397 424.769,35.872C424.101,34.59 423.627,33.06 423.634,31.265L423.648,27.381L424.774,27.902C422.605,23.906 421.594,18.45 428.47,13.717C431.899,11.356 435.879,12.029 439.983,12.723C441.898,13.047 443.847,13.376 445.539,13.32C448.366,13.225 451.233,12.716 454.073,11.925C456.935,11.128 459.785,10.031 462.546,8.775C464.724,7.784 467.366,6.875 470.178,6.395C472.524,5.994 475.001,5.892 477.454,6.285L482.039,7.018C482.872,6.652 483.68,6.35 484.49,6.098C486.545,5.457 488.537,5.159 490.941,4.976C498.519,4.398 502.674,5.231 505.202,9.022C507.47,12.424 507.795,17.865 507.891,26.863C507.92,29.59 512.052,32.427 515.292,34.649C516.489,35.471 517.586,36.224 518.45,36.946L518.513,36.999L518.664,37.161C519.549,38.105 520.339,39.101 521.031,40.138C524.521,45.369 525.883,51.979 524.605,58.911C523.357,65.681 519.583,72.76 512.797,79.114C510.688,81.09 508.303,82.986 505.632,84.77L499.106,89.127L501.386,83.219C499.658,84.269 497.807,85.05 495.849,85.596L494.457,85.984C491.171,89.329 487.395,91.452 483.82,93.462C480.47,95.345 477.32,97.116 475.287,99.669L468.543,108.138L470.195,100.779C469.679,101.676 469.028,102.638 468.116,103.678L466.886,105.082L465.194,104.292C462.763,103.156 460.016,102.498 457.319,101.851C453.118,100.843 449.019,99.86 445.702,97.341L446.22,102.157L441.531,98.336ZM435.506,79.975C435.672,82.786 436.68,85.344 438.239,87.692C438.781,88.508 439.39,89.3 440.054,90.069C440.096,89.612 440.165,89.133 440.266,88.624L441.942,80.23L445.029,88.215C447.406,94.366 452.825,95.666 458.467,97.019C460.788,97.575 463.14,98.14 465.443,99.011C466.057,98.086 466.466,97.214 466.845,96.404C468.291,93.322 469.431,90.892 475.779,88.818L481.835,86.839L480.179,89.798C480.578,89.571 480.98,89.345 481.385,89.117C486.495,86.245 492.066,83.113 495.291,76.086L500.391,64.974L500.034,77.187C500.024,77.521 499.991,77.862 499.938,78.206C501.295,77.213 502.542,75.973 503.665,74.452L508.226,68.277C508.197,71.063 508.166,73.85 508.137,76.637C508.575,76.257 508.998,75.874 509.409,75.49C515.357,69.92 518.649,63.805 519.716,58.015C520.754,52.387 519.68,47.068 516.901,42.905C516.378,42.119 515.805,41.385 515.187,40.708C514.494,40.139 513.534,39.479 512.487,38.76C508.31,35.894 502.982,32.237 502.924,26.902C502.839,18.863 502.607,14.09 501.073,11.789C499.798,9.877 496.903,9.517 491.311,9.944C489.263,10.1 487.602,10.343 485.97,10.852C484.329,11.363 482.637,12.168 480.514,13.452L479.997,13.765L479.375,13.803C477.744,13.902 475.807,13.941 474.326,13.971C473.777,13.982 473.299,13.992 472.857,14.006L469.025,14.132L470.107,11.479C468.093,11.907 466.198,12.584 464.591,13.315C461.646,14.655 458.562,15.836 455.397,16.718C452.209,17.606 448.954,18.179 445.695,18.288C443.479,18.362 441.303,17.995 439.165,17.633C436.061,17.108 433.051,16.599 431.294,17.809C426.823,20.886 428.426,24.635 430.026,26.96C430.519,27.677 431.084,28.362 431.495,28.859C431.976,29.442 432.314,29.851 432.515,30.346L433.695,33.248L430.587,33.736C430.114,33.81 429.762,33.912 429.477,33.994L429.438,34.006C429.778,34.553 430.174,35.024 430.538,35.411L431.733,36.685L430.946,38.236C429.259,41.561 426.755,43.356 424.405,44.641L427.117,45.275L425.157,48.253C423.25,51.152 423.316,51.504 423.378,51.832C423.579,52.898 423.769,53.908 422.285,56.448L422.293,56.453C421.367,58.036 421.164,60.059 421.37,62.017C421.445,62.723 421.568,63.41 421.728,64.059L422.842,61.833L424.817,67.258C425.321,68.642 426.118,70.961 426.785,73.21L428.757,70.477L429.567,76.694C429.78,78.323 430.011,79.617 430.3,80.702L430.355,80.499C430.441,80.177 430.527,79.856 430.598,79.556L434.496,62.904L435.506,79.975Z" style="fill:rgb(245,130,31);"/>
                    </g>
                    <g transform="matrix(26.0417,0,0,19.5312,-11799.1,0)">
                        <path d="M433.022,80.121C433.411,86.697 437.654,91.968 443.099,96.407C442.815,93.776 442.151,91.917 442.711,89.111C446.835,99.782 457.666,98.036 466.246,102.042C470.543,97.14 468.36,93.861 476.548,91.185C475.384,93.264 473.952,95.39 473.339,98.12C479.249,90.698 491.645,89.985 497.55,77.119C497.499,78.88 496.499,81.081 495.187,83.199C499.27,82.06 502.824,79.774 505.661,75.933C505.618,79.811 505.694,78.961 504.249,82.705C524.853,68.948 526.62,49.293 516.853,38.856C513.533,36.083 505.464,32.153 505.408,26.883C505.226,9.845 504.296,6.455 491.126,7.46C486.673,7.799 483.821,8.54 479.229,11.319C476.852,11.463 474.123,11.478 472.779,11.522C473.381,10.045 475.073,9.505 477.065,8.739C472.272,7.973 467.224,9.382 463.568,11.045C457.862,13.641 451.703,15.6 445.617,15.804C440.188,15.986 433.934,12.974 429.882,15.763C420.632,22.13 429.813,30.312 430.207,31.281C428.061,31.617 428.227,32.24 426.117,31.265C426.107,33.929 427.558,35.869 428.726,37.115C426.205,42.085 421.082,43.113 418.772,44.856C419.676,46.079 421.154,46.438 423.083,46.889C418.772,53.441 422.505,51.15 420.14,55.196C417.356,59.959 419.467,67.166 421.673,69.718L422.48,68.105C423.424,70.7 425.437,76.706 425.575,79.135C426.084,78.428 426.594,77.722 427.104,77.015C427.973,83.685 429.237,85.444 433.222,89.659C431.353,84.71 432.448,82.573 433.022,80.121Z" style="fill:rgb(35,31,32);"/>
                    </g>
                    <g transform="matrix(26.0417,0,0,19.5312,-11799.1,0)">
                        <path d="M436.56,42.779C436.34,42.661 435.965,42.624 435.617,42.565C435.617,43.256 435.765,44.221 436.163,44.407C436.141,44.288 436.13,44.181 436.13,43.936C436.13,43.691 436.391,43.075 436.56,42.779ZM439.987,46.462C439.804,46.056 439.695,45.693 439.487,45.445C439.068,45.777 438.331,46.082 437.589,45.982C438.223,46.535 439.218,46.652 439.987,46.462Z" style="fill:white;"/>
                    </g>
                    <g transform="matrix(26.0417,0,0,19.5312,-11799.1,0)">
                        <path d="M499.95,17.839C500.283,18.875 499.539,19.584 499.041,20.641C498.438,21.921 497.625,27.435 497.905,28.599C496.395,27.629 493.572,29.009 490.82,29.314C489.787,29.429 488.485,29.159 487.847,28.491C487.113,27.721 487.37,26.377 488.019,25.573L489.523,23.861L487.205,24.565C487.96,22.988 488.358,22.652 489.283,22.071C486.696,22.261 484.689,23.971 483.684,25.718L484.006,24.829C483.087,22.913 485.887,22.123 485.787,20.04C487.129,16.286 488.694,16.615 490.773,15.31C493.079,13.862 497.985,13.931 499.95,17.839ZM485.68,64.906C484.414,63.84 482.711,63.879 481.127,63.982C482.023,62.481 485.63,60.312 487.159,59.573C490.829,57.798 491.664,58.282 495.901,57.965L494.221,53.042L498.297,54.209C499.785,48.825 497.103,46.473 495.376,42.422C501.249,45.838 503.446,53.947 502.058,60.166C501.105,58.51 500.078,56.195 496.948,55.621C498.377,58.873 499.072,61.208 499.363,65.08C496.17,63.315 491.201,60.908 487.823,63.873C489.657,64.97 491.107,66.474 491.657,69.179C490.73,68.49 489.564,65.758 484.373,66.133C482.057,66.3 478.197,67.906 477.314,69.027C478.473,67.099 479.603,65.808 485.68,64.906ZM471.544,41.736C472.575,41.411 473.612,40.909 474.168,40.405C471.376,44.644 468.884,47.716 460.444,49.678C461.941,50.156 463.054,50.158 464.827,49.823C462.466,50.937 460.151,50.624 458.042,49.853C459.227,52.479 460.687,52.646 462.098,52.646C463.568,52.646 465.615,49.897 469.171,48.816C471.029,48.252 473.638,49.107 474.617,49.518C475.881,48.963 477.452,48.734 479.541,44.612C478.917,47.955 477.979,49.071 476.184,50.579C477.102,51.195 477.362,51.759 477.906,52.941C480.192,50.61 480.602,47.668 481.36,45.394L481.789,44.418C481.807,47.174 481.305,49.418 480.317,51.832C479.748,53.224 479.188,54.269 478.642,55.127C481.704,53.757 482.815,49.656 483.264,48.338C483.47,52.132 483.057,53.088 481.347,56.549C486.789,51.177 485.861,44.118 485.08,39.753C488.441,45.783 490.36,53.145 481.769,60.342L482.626,57.329C480.103,58.18 477.15,65.03 475.958,67.38C475.629,68.069 475.593,70.668 474.035,74.127C476.195,71.727 480.297,71.552 482.852,72.468C487.393,74.094 487.837,77.316 488.643,78.111C490.213,75.49 490.374,71.653 489.082,69.257C491.752,70.846 491.887,73.718 491.354,77.474C496.765,75.291 497.657,70.515 496.629,65.388L498.628,66.978C500.913,69.344 501.156,72.341 500.764,75.49L501.071,75.099C504.097,70.817 503.603,66.95 503.125,64.048C504.512,65.676 504.853,67.701 504.647,68.701C511.83,62.952 508.241,53.592 505.278,46.805C510.039,51.05 510.837,54.671 511.149,58.512C516.826,42.772 501.265,33.497 489.914,30.613C492.951,29.409 497.201,30.334 499.191,30.578C498.794,27.183 500.09,25.61 500.781,21.687C501.228,22.29 501.835,23.321 502.596,23.177C502.388,22.664 501.989,20.726 502.114,19.909C503.334,11.918 490.273,8.392 485.874,10.943C479.441,14.672 478.907,15.127 475.573,18.34C475.68,17.414 476.221,16.466 477.329,15.629C469.059,14.55 465.72,16.738 458.94,21.679C457.455,22.761 453.689,26.823 452.699,28.218C451.139,30.417 448.772,33.63 447.597,36.033C447.735,31.875 450.826,24.619 452.407,20.654C451.224,21.269 452.035,20.672 450.65,22.453C449.973,23.323 449.892,23.29 449.437,24.292C449.956,22.019 450.962,20.765 451.805,19.09C449.881,19.329 446.901,20.25 445.591,21.727C441.135,26.752 438.591,29.028 436.814,30.391C434.692,32.019 432.299,33.773 429.882,34.88C430.468,36.322 434.439,38.46 435.787,38.313C436.748,38.209 437.344,39.443 436.636,38.463C438.837,39.546 440.86,41.764 441.144,44.184L442.216,43.659C441.78,42.858 441.423,42.477 441.045,41.758C441.939,42.424 441.978,42.653 442.832,43.141C443.908,42.227 445.38,40.978 446.986,40.563L446.986,38.65C448.634,41.155 450.991,39.616 454.259,42.507C454.91,43.083 455.105,43.605 455.21,44.12C456.882,44.184 457.387,43.419 458.431,42.079C457.868,43.463 457.295,44.516 455.856,45.771C459.55,45.349 462.677,36.064 465.209,36.06L465.508,36.179C468.97,33.173 473.07,32.07 473.343,35.549C473.407,36.365 473.728,38.93 471.544,41.736Z" style="fill:rgb(117,68,7);"/>
                    </g>
                    <g transform="matrix(26.0417,0,0,19.5312,-11799.1,0)">
                        <path d="M438.154,39.08C439.651,40.607 440.961,42.624 441.144,44.184L442.216,43.659C441.779,42.858 441.424,42.477 441.045,41.758C441.939,42.423 441.978,42.653 442.832,43.141C443.908,42.227 445.38,40.978 446.986,40.563L446.986,38.65C445.316,39.964 445.409,39.316 443.19,42.057C442.105,40.85 440.509,39.677 438.154,39.08Z" style="fill:rgb(100,53,0);"/>
                    </g>
                    <g transform="matrix(26.0417,0,0,19.5312,-11799.1,0)">
                        <path d="M447.106,38.823C448.748,41.083 451.07,39.686 454.259,42.507C454.91,43.083 455.105,43.605 455.21,44.12C456.881,44.184 457.387,43.419 458.431,42.079C457.869,43.463 457.295,44.516 455.856,45.77C458.213,45.501 460.339,41.624 462.227,38.852C462.058,38.292 461.887,37.742 461.674,37.363C460.483,38.824 458.869,40.873 456.456,41.417C454.237,38.676 448.656,39.964 446.986,38.65C447.051,38.643 447.087,38.707 447.106,38.823Z" style="fill:rgb(100,53,0);"/>
                    </g>
                    <g transform="matrix(26.0417,0,0,19.5312,-11799.1,0)">
                        <path d="M471.544,41.736C472.575,41.411 473.612,40.909 474.168,40.405C471.376,44.644 468.884,47.716 460.444,49.678C465.309,49.133 471.119,47.598 474.035,45.782C472.673,45.785 471.969,46.034 470.905,45.896C473.852,43.921 477.134,39.984 477.329,37.061C476.359,38.231 474.771,39.102 473.824,39.379C474.387,37.838 475.623,33.102 474.479,30.25C473.254,30.997 471.993,32.178 470.729,33.418C472.165,33.245 473.209,33.852 473.343,35.549C473.407,36.365 473.728,38.93 471.544,41.736Z" style="fill:rgb(100,53,0);"/>
                    </g>
                    <g transform="matrix(26.0417,0,0,19.5312,-11799.1,0)">
                        <path d="M485.08,39.753C488.441,45.783 490.36,53.145 481.769,60.342L482.626,57.329C480.103,58.179 477.149,65.03 475.958,67.38C475.629,68.069 475.593,70.668 474.035,74.127C476.195,71.727 480.297,71.552 482.852,72.468C487.393,74.094 487.837,77.316 488.643,78.111C490.213,75.49 490.374,71.653 489.082,69.256C491.753,70.845 491.888,73.718 491.354,77.474C496.765,75.291 497.657,70.515 496.629,65.388L498.628,66.978C500.913,69.344 501.156,72.341 500.764,75.49L501.071,75.099C504.097,70.817 503.603,66.951 503.126,64.048C504.512,65.676 504.853,67.701 504.647,68.701C511.83,62.952 508.241,53.592 505.278,46.805C505.041,50.692 504.86,57.134 502.058,60.166C501.105,58.51 500.078,56.195 496.948,55.621C498.377,58.873 499.072,61.208 499.363,65.08C496.17,63.315 491.201,60.908 487.823,63.873C489.657,64.97 491.107,66.473 491.657,69.179C490.73,68.49 489.564,65.758 484.373,66.133C482.056,66.3 478.197,67.906 477.314,69.027C478.473,67.099 479.604,65.808 485.68,64.906C484.414,63.84 482.711,63.879 481.128,63.982C482.023,62.482 485.63,60.312 487.159,59.573C490.829,57.798 491.664,58.282 495.901,57.965L494.221,53.042L498.297,54.209C499.785,48.825 497.103,46.473 495.376,42.422C494.794,47.193 494.497,48.386 491.475,51.571C491.553,46.504 489.588,42.771 485.08,39.753Z" style="fill:rgb(100,53,0);"/>
                    </g>
                    <g transform="matrix(26.0417,0,0,19.5312,-11799.1,0)">
                        <path d="M449.707,19.53C448.134,19.981 446.479,20.727 445.591,21.727C441.135,26.752 438.591,29.028 436.814,30.391C435.112,31.697 433.235,33.084 431.312,34.153C438.925,30.839 444.347,23.114 449.707,19.53Z" style="fill:rgb(164,111,48);"/>
                    </g>
                    <g transform="matrix(26.0417,0,0,19.5312,-11799.1,0)">
                        <path d="M467.675,77.787C467.972,78.335 468.437,78.384 469.365,78.49C465.651,80.122 455.856,76.832 451.174,76.146C448.25,75.718 444.559,75.554 441.889,76.939C439.254,78.306 439.341,79.769 439.436,82.69C439.867,81.909 440.046,81.201 440.723,80.587C442.513,84.985 447.08,84.635 449,85.081C446.87,82.627 445.146,81.238 445.229,80.405C453.022,87.752 464.549,87.985 470.052,84.697C467.988,84.863 463.177,84.473 463.593,82.48C470.591,84.836 476.127,80.881 476.548,80.099C476.47,80.076 471.469,81.677 471.178,78.809C470.926,76.318 474.839,71.683 474.111,68.948C473.103,72.492 471.254,76.139 467.675,77.787Z" style="fill:rgb(164,111,48);"/>
                    </g>
                    <g transform="matrix(26.0417,0,0,19.5312,-11799.1,0)">
                        <path d="M467.675,77.787C467.972,78.335 468.437,78.384 469.365,78.49C468.611,78.821 467.606,78.95 466.444,78.938C464.375,80.703 460.043,80.478 457.22,80.733C457.975,82.458 458.509,82.736 461.459,84.151C457.367,84.945 450.927,83.31 447.275,82.114C454.925,87.765 465.014,87.707 470.052,84.697C467.988,84.863 463.177,84.473 463.593,82.48C470.591,84.836 476.127,80.881 476.548,80.099C476.47,80.076 471.469,81.677 471.178,78.809C470.926,76.318 474.839,71.683 474.111,68.948C473.103,72.492 471.254,76.139 467.675,77.787Z" style="fill:rgb(142,84,23);"/>
                    </g>
                    <g transform="matrix(26.0417,0,0,19.5312,-11799.1,0)">
                        <path d="M461.323,53.677C460.86,54.751 460.68,55.202 459.554,56.337C460.592,56.09 461.5,55.961 462.476,54.914C465.487,51.506 467.546,50.393 468.968,50.038C472.073,49.261 475.056,50.242 476.985,53.425C476.227,53.247 475.39,53.004 473.949,53.753C476.048,54.173 476.506,56.839 479.531,56.34C478.762,57.95 474.647,58.221 474.942,60.915C475.767,59.571 476.944,59.097 478.459,58.924C477.798,59.144 476.335,61.135 474.724,63.829C474.178,64.742 472.476,67.308 471.777,68.201C468.953,71.812 464.671,72.229 463.531,72.859C466.429,73.002 467.665,72.153 469.946,71.419C468.428,78.85 459.195,75.166 452.184,73.871C449.847,73.44 447.807,73.79 446.241,72.908C446.022,72.785 444.981,71.3 444.863,71.038C448.331,68.948 456.068,65.869 455.678,56.399C455.516,57.101 453.904,62.235 452.153,63.294C452.82,58.514 450.222,56.241 447.463,54.974C444.837,54.647 440.641,54.671 437.487,55.461C440.435,51.475 443.905,44.487 447.458,42.395C448.592,41.728 450.083,41.851 451.52,41.956C453.256,42.795 454.128,43.759 454.485,44.566C452.374,47.051 453.592,48.794 452.831,52.28C454.493,51.408 454.168,47.843 454.985,47.739C456.007,48.272 456.503,48.913 456.814,49.961C457.751,53.126 458.955,53.808 461.323,53.677Z" style="fill:rgb(164,111,48);"/>
                    </g>
                    <g transform="matrix(26.0417,0,0,19.5312,-11799.1,0)">
                        <path d="M455.989,74.692C454.689,74.394 453.403,74.096 452.184,73.871C449.846,73.44 447.807,73.79 446.241,72.908C446.022,72.785 444.981,71.3 444.863,71.039C447.536,69.428 452.743,67.228 454.813,61.97L454.813,61.972C454.86,63.531 454.336,69.568 447.942,71.499C449.662,73.123 454.864,72.859 455.989,74.692Z" style="fill:rgb(142,84,23);"/>
                    </g>
                    <g transform="matrix(26.0417,0,0,19.5312,-11799.1,0)">
                        <path d="M455.684,56.613L455.678,56.399C455.516,57.102 453.904,62.235 452.153,63.294C452.82,58.514 450.222,56.241 447.463,54.974C447.342,54.959 447.218,54.944 447.091,54.931C450.437,52.11 449.237,50.303 450.218,47.959C450.194,48.509 450.343,49.205 450.115,50.402C451.217,48.653 449.963,46.985 451.694,45.107C451.773,45.782 451.16,46.382 451.52,46.85C451.466,46.167 453.321,44.644 452.895,42.763C453.747,43.377 454.238,44.009 454.485,44.566C452.374,47.051 453.592,48.794 452.831,52.28C454.402,51.456 454.198,48.228 454.86,47.787C454.873,48.079 454.885,48.41 454.894,48.794C454.934,50.468 455.537,51.27 454.7,53.802C455.856,52.997 456.127,51.994 456.396,50.741C456.624,51.673 456.159,54.302 455.684,56.613Z" style="fill:rgb(142,84,23);"/>
                    </g>
                    <g transform="matrix(26.0417,0,0,19.5312,-11799.1,0)">
                        <path d="M466.931,56.474C470.233,55.724 471.637,55.853 472.51,56.966C468.202,57.118 468.752,60.306 464.37,61.814C467.449,63.263 470.142,59.771 472.51,60.808C468.912,62.157 469.819,64.033 467.297,64.902C468.362,64.902 469.596,65.09 471.119,63.924C469.955,66.657 467.562,70.675 463.531,72.859C464.671,72.229 468.953,71.812 471.777,68.202C472.476,67.308 474.178,64.742 474.724,63.829C476.335,61.135 477.798,59.144 478.459,58.924C476.944,59.097 475.767,59.571 474.942,60.915C474.647,58.22 478.762,57.95 479.531,56.34C476.506,56.839 476.048,54.173 473.949,53.753C475.39,53.004 476.227,53.246 476.985,53.425C472.599,48.88 467.246,53.788 466.931,56.474Z" style="fill:rgb(142,84,23);"/>
                    </g>
                    <g transform="matrix(26.0417,0,0,19.5312,-11799.1,0)">
                        <path d="M423.31,60.43C423.759,61.443 423.773,60.43 424.514,60.43C425.591,60.43 426.466,61.056 426.119,62.161C425.894,62.878 425.763,64.147 425.666,65.869C427.196,60.554 428.679,59.201 431.205,57.806C430.711,58.924 430.711,59.875 431.614,60.936C431.614,58.683 432.902,57.401 433.404,56.797C435.316,54.491 437.847,51.486 438.331,49.586C436.694,48.768 436.297,49.33 435.063,48.587C431.741,46.586 431.761,41.066 431.614,40.529C431.311,40.261 431.093,40.11 430.678,39.676L428.44,42C427.234,43.222 427.428,43.42 425.693,44.044C426.578,44.723 426.399,44.534 428.038,44.309L426.386,46.187C425.859,46.967 425.386,48.089 425.286,49.317C426.245,48.199 426.816,47.843 428.106,47.373C426.464,48.98 422.067,54.131 423.31,60.43Z" style="fill:rgb(117,68,7);"/>
                    </g>
                    <g transform="matrix(26.0417,0,0,19.5312,-11799.1,0)">
                        <path d="M464.305,32.877C462.444,32.706 461.486,35.404 460.429,38.451C459.459,41.244 458.438,44.332 455.856,45.771C460.376,46.059 460.722,40.201 462.63,38.65C462.63,39.176 462.79,39.885 462.797,39.919C464.352,38.65 464.654,36.315 467.299,35.893C465.643,37.032 466.27,38.235 464.883,39.426C468.74,39.11 471.08,36.96 473.202,34.373C473.986,33.417 474.417,31.981 474.487,30.002C470.729,33.418 467.043,30.959 462.939,35.671C463.311,34.555 462.906,33.771 464.305,32.877Z" style="fill:rgb(164,111,48);"/>
                    </g>
                    <g transform="matrix(26.0417,0,0,19.5312,-11799.1,0)">
                        <path d="M435.043,72.025C435.589,73.264 437.468,75.029 438.767,75.644C440.508,76.469 437.133,73.902 444.298,73.329C443.856,73.069 443.332,72.029 442.906,71.182C440.861,70.984 438.866,69.881 437.181,68.948C435.528,68.033 435.343,66.495 434.361,64.571C433.616,67.427 433.782,69.165 435.043,72.025Z" style="fill:rgb(164,111,48);"/>
                    </g>
                    <g transform="matrix(26.0417,0,0,19.5312,-11799.1,0)">
                        <path d="M435.043,72.025C435.589,73.264 437.468,75.029 438.767,75.644C434.98,71.744 434.29,70.398 434.361,64.571C433.616,67.427 433.782,69.165 435.043,72.025Z" style="fill:white;"/>
                    </g>
                    <g transform="matrix(26.0417,0,0,19.5312,-11799.1,0)">
                        <path d="M439.785,74.6C440.296,74.086 441.484,73.554 444.299,73.328C443.856,73.069 443.332,72.029 442.906,71.182C440.861,70.984 438.866,69.88 437.181,68.948C436.901,68.793 436.663,68.62 436.455,68.43C436.592,69.293 438.414,70.661 439.165,71.298C439.565,71.636 441.189,72.367 441.143,72.475C440.749,73.41 440.025,73.929 439.785,74.6Z" style="fill:rgb(142,84,23);"/>
                    </g>
                    <g transform="matrix(26.0417,0,0,19.5312,-11799.1,0)">
                        <path d="M488.019,25.573C487.37,26.377 487.113,27.721 487.847,28.491C488.485,29.159 489.787,29.429 490.82,29.314C493.572,29.01 495.824,29.055 497.905,28.599C497.836,27.432 498.926,21.823 499.482,20.641C499.98,19.584 500.283,18.875 499.95,17.839C499.646,16.403 498.448,15.615 497.405,15.224C498.47,16.912 497.809,17.348 496.937,18.808C496.029,20.327 495.514,21.531 495.571,23.53C496.25,23.026 496.811,22.628 497.286,21.769C496.436,26.729 490.659,26.038 489.562,27.087C490.647,27.571 492.516,27.827 493.746,27.711C491.344,28.849 487.982,28.999 488.019,25.573Z" style="fill:rgb(100,53,0);"/>
                    </g>
                    <g transform="matrix(26.0417,0,0,19.5312,-11799.1,0)">
                        <path d="M448.339,34.594C448.434,34.611 453.661,26.96 454.94,25.576C462.303,17.607 466.48,16.983 477.358,15.624C474.969,15.06 469.957,14.686 466.635,16.119C464.066,17.228 460.182,19.458 458.907,20.893C462.073,17.182 460.585,18.643 464.717,15.325C462.494,16.187 460.993,17.302 459.366,18.764C458.496,19.545 457.809,19.968 457.037,20.805C453.445,24.697 450.577,29.122 448.339,34.594Z" style="fill:rgb(164,111,48);"/>
                    </g>
                    <g transform="matrix(26.0417,0,0,19.5312,-11799.1,0)">
                        <path d="M448.339,34.594L448.339,34.596C448.449,34.594 453.663,26.96 454.941,25.577C462.305,17.609 466.48,16.985 477.358,15.626L477.359,15.622C476.2,15.349 474.426,15.12 472.527,15.12C470.508,15.12 468.347,15.379 466.634,16.118C464.065,17.226 460.181,19.457 458.905,20.892L458.907,20.893L458.908,20.895C462.074,17.183 460.586,18.645 464.718,15.327L464.716,15.324C462.493,16.185 460.992,17.3 459.365,18.763C458.495,19.544 457.808,19.967 457.035,20.804C453.444,24.696 450.575,29.121 448.337,34.593L448.336,34.596L448.339,34.596L448.339,34.594L448.341,34.594C450.579,29.123 453.447,24.698 457.038,20.807C457.81,19.97 458.498,19.547 459.367,18.766C460.994,17.303 462.495,16.189 464.718,15.327L464.717,15.325L464.716,15.324C460.584,18.641 462.071,17.181 458.905,20.892L458.908,20.895C460.182,19.46 464.067,17.23 466.636,16.121C468.347,15.383 470.508,15.124 472.527,15.124C474.426,15.124 476.2,15.353 477.358,15.626L477.358,15.622C466.48,16.981 462.302,17.606 454.938,25.575C453.661,26.957 448.442,34.593 448.339,34.592L448.339,34.594L448.341,34.594L448.339,34.594Z" style="fill:rgb(164,111,48);fill-rule:nonzero;"/>
                    </g>
                    <g transform="matrix(26.0417,0,0,19.5312,-11799.1,0)">
                        <path d="M437.845,24.62C438.951,23.993 441.936,21.253 442.46,20.288C439.116,17.993 435.057,15.468 429.882,18.793C431.304,19.457 436.929,21.682 437.845,24.62Z" style="fill:rgb(100,53,0);"/>
                    </g>
                    <g transform="matrix(26.0417,0,0,19.5312,-11799.1,0)">
                        <path d="M426.844,49.028C424.182,51.323 421.192,59.331 423.51,63.406C423.831,62.113 425.063,61.521 425.823,61.514C425.015,62.667 425.319,64.826 425.666,65.869C426.299,62.336 427.664,59.445 428.523,58.991C427.1,59.05 425.908,59.293 424.609,60.162C423.949,56.362 425.885,53.793 426.844,49.028Z" style="fill:rgb(164,111,48);"/>
                    </g>
                    <g transform="matrix(26.0417,0,0,19.5312,-11799.1,0)">
                        <path d="M437.487,55.461C442.16,51.624 443.525,45.083 448.007,42.578C449.155,41.936 450.083,41.851 451.52,41.956C447.398,39.786 444.051,44.659 442.104,47.863C440.803,50.004 439.069,53.436 437.487,55.461Z" style="fill:white;"/>
                    </g>
                    <g transform="matrix(26.0417,0,0,19.5312,-11799.1,0)">
                        <path d="M441.144,44.184C440.86,41.764 438.383,37.62 436.182,36.537C436.201,36.909 436.208,37.651 436.299,37.884C434.689,38.059 431.101,35.912 429.882,34.88C430.813,37.356 434.298,39.475 434.413,39.549C437.631,41.625 436.316,40.59 438.995,43.013C438.212,40.759 438.188,41.074 437.459,40C438.752,41.006 440.279,42.498 441.144,44.184Z" style="fill:rgb(164,111,48);"/>
                    </g>
                    <g transform="matrix(26.0417,0,0,19.5312,-11799.1,0)">
                        <path d="M438.331,49.586L438.501,48.884C436.223,48.275 433.41,45.876 433.117,43.572C433.676,44.007 433.779,44.254 434.565,44.629L434.334,42.024L431.614,40.529C431.761,41.066 431.741,46.587 435.063,48.587C436.297,49.33 436.928,49.586 438.331,49.586Z" style="fill:rgb(164,111,48);"/>
                    </g>
                    <g transform="matrix(26.0417,0,0,19.5312,-11799.1,0)">
                        <path d="M483.684,25.717C484.428,22.352 486.029,21.455 487.188,20.988C486.235,16.002 492.143,14.844 495.912,14.657C494.006,13.547 489.303,13.892 487.74,15.836C487.73,15.022 488.418,13.975 489.701,12.312C484.396,14.505 482.985,20.976 483.684,25.717Z" style="fill:rgb(164,111,48);"/>
                    </g>
                    <g transform="matrix(26.0417,0,0,19.5312,-11799.1,0)">
                        <path d="M437.845,24.62C438.046,23.034 437.048,22.038 435.357,20.539C435.485,20.876 435.854,21.65 435.646,21.694C435.199,21.011 431.786,17.578 429.882,18.793C429.353,19.131 429.057,19.622 428.67,20.551C432.879,19.52 435.987,22.722 436.341,24.13C436.484,23.475 436.331,22.661 436.158,22.334C436.99,22.922 437.695,23.926 437.845,24.62Z" style="fill:rgb(164,111,48);"/>
                    </g>
                    <g transform="matrix(26.0417,0,0,19.5312,-11799.1,0)">
                        <path d="M438.239,56.257C436.724,57.127 435.7,57.822 435.343,59.213C436.084,58.621 436.957,58.047 438.239,57.532C439.675,58.156 440.492,58.705 440.962,59.213C441.464,58.62 442.024,58.047 442.758,57.532C443.996,57.327 445.247,57.405 446.523,57.664C448.915,59.218 450.522,61.051 451.679,62.836C451.679,59.036 449.191,57.51 447.071,55.995C444.505,55.672 441.965,55.963 438.239,56.257Z" style="fill:white;"/>
                    </g>
                    <g transform="matrix(26.0417,0,0,19.5312,-11799.1,0)">
                        <path d="M460.823,78.225C457.266,77.519 453.557,76.495 451.173,76.146C448.25,75.718 444.559,75.554 441.889,76.939C439.418,78.22 439.341,79.587 439.419,82.16C439.735,74.241 451.897,78.169 460.824,78.226L460.823,78.225Z" style="fill:white;"/>
                    </g>
                    <g transform="matrix(26.0417,0,0,19.5312,-11799.1,0)">
                        <path d="M437.338,63.969C437.181,64.264 437.093,64.598 437.093,64.952C437.093,66.147 438.096,67.115 439.333,67.115C440.142,67.115 440.851,66.701 441.245,66.08C440.838,66.368 440.335,66.538 439.791,66.538C438.432,66.538 437.33,65.474 437.33,64.161L437.338,63.969Z" style="fill:white;"/>
                    </g>
                    <g transform="matrix(26.0417,0,0,19.5312,-11799.1,0)">
                        <path d="M443.533,64.754C443.496,65.086 443.537,65.429 443.667,65.758C444.107,66.869 445.396,67.4 446.546,66.944C447.298,66.646 447.805,66 447.942,65.278C447.67,65.696 447.265,66.039 446.76,66.239C445.496,66.74 444.079,66.156 443.596,64.936L443.533,64.754Z" style="fill:white;"/>
                    </g>
                    <g transform="matrix(26.0417,0,0,19.5312,-11799.1,0)">
                        <path d="M460.971,44.94C460.434,45.683 459.614,46.578 458.823,46.923C461.709,47.276 464.232,46.608 466.051,45.376C467.684,44.272 469.035,42.628 469.869,40.753C470.035,40.477 470.156,40.125 470.344,39.476C468.758,39.928 467.087,40.895 465.319,41.485C465.679,41.954 465.893,42.54 465.893,43.176C465.893,44.71 464.65,45.954 463.117,45.954C462.253,45.954 461.481,45.559 460.971,44.94Z" style="fill:white;"/>
                    </g>
                    <g transform="matrix(26.0417,0,0,19.5312,-11799.1,0)">
                        <path d="M463.841,42.795L464.047,42.783C464.248,42.924 464.125,44 463.164,44.042C462.656,44.063 462.245,43.874 462.071,43.467C461.996,43.293 462.006,43.222 461.976,43.184C461.901,43.317 461.832,43.455 461.753,43.584L461.679,43.708C461.811,44.702 463.155,45.344 464.129,44.596C464.834,44.055 464.867,42.861 463.998,42.373C463.904,42.321 463.819,42.28 463.743,42.256L463.622,42.232L463.612,42.232L463.541,42.243L463.539,42.243C463.4,42.279 463.298,42.406 463.298,42.557C463.298,42.736 463.443,42.881 463.622,42.881L463.841,42.795Z" style="fill:white;"/>
                    </g>
                    <g transform="matrix(26.0417,0,0,19.5312,-11799.1,0)">
                        <path d="M437.402,43.842L437.259,43.834C437.119,43.932 437.204,44.68 437.873,44.708C438.226,44.723 438.511,44.592 438.632,44.309L438.665,44.219C438.746,44.315 438.824,44.413 438.899,44.514C438.778,45.184 437.866,45.604 437.202,45.094C436.712,44.718 436.689,43.888 437.293,43.549L437.47,43.467L437.555,43.451L437.561,43.451L437.611,43.458L437.612,43.458C437.708,43.483 437.78,43.572 437.78,43.676C437.78,43.8 437.679,43.902 437.555,43.902L437.402,43.842Z" style="fill:white;"/>
                    </g>
                    <g transform="matrix(26.0417,0,0,19.5312,-11799.1,0)">
                        <path d="M423.737,128.191L425.553,127.937C426.393,127.82 427.094,127.891 427.665,128.152C428.326,127.674 429.091,127.363 429.937,127.245C430.628,127.148 431.238,127.201 431.76,127.394L431.791,127.406L431.937,127.045L440.95,125.785C440.982,125.64 441.023,125.493 441.074,125.345L441.481,124.15L444.887,123.674L448.185,123.213L448.655,123.147L448.046,124.794L451.555,124.303C451.84,124.211 452.137,124.142 452.445,124.099C453.136,124.003 453.746,124.056 454.269,124.249L454.3,124.261L454.445,123.899L474.724,121.065C474.755,120.92 474.797,120.773 474.847,120.625L475.254,119.43L478.66,118.954L481.958,118.493L482.428,118.427L481.819,120.074L502.293,117.212L500.292,122.624L499.85,122.686C499.902,122.845 499.94,123.011 499.964,123.184C500.047,123.775 499.957,124.43 499.694,125.139L499.402,125.931C499.055,126.867 498.526,127.638 497.828,128.222C497.116,128.816 496.259,129.194 495.27,129.332L491.285,129.889L488.703,130.25L484.167,130.884C484.052,130.906 483.935,130.926 483.815,130.943L480.242,131.442L480.246,131.432L479.412,131.548L477.26,131.849L474.351,132.256L470.742,132.76L453.04,135.234C452.925,135.257 452.808,135.276 452.688,135.293L451.048,135.522C450.779,135.606 450.5,135.669 450.211,135.709C449.924,135.749 449.651,135.764 449.393,135.753L449.116,135.791L449.138,135.733C448.87,135.704 448.62,135.646 448.388,135.559C448.274,135.517 448.164,135.469 448.06,135.416C447.431,135.843 446.705,136.119 445.889,136.233L440.577,136.976L436.969,137.48L430.535,138.379C430.419,138.402 430.301,138.422 430.18,138.439L428.54,138.668C428.271,138.752 427.992,138.814 427.703,138.855C427.416,138.895 427.143,138.909 426.884,138.898L426.608,138.937L426.629,138.879C426.362,138.849 426.112,138.791 425.879,138.705C425.781,138.669 425.686,138.628 425.594,138.583C424.972,138.991 424.257,139.256 423.458,139.368L418.179,140.106C419.878,135.51 420.824,132.952 422.522,128.361L423.737,128.191Z" style="fill:rgb(35,31,32);"/>
                    </g>
                    <g transform="matrix(26.0417,0,0,19.5312,-11799.1,0)">
                        <path d="M418.609,130.47C410.172,131.651 403.915,132.528 397.932,133.365L408.861,98.691L452.427,92.59L460.517,91.457L486.276,87.849L493.785,86.798L498.169,86.184L497.857,88.526C500.561,86.463 503.72,85.127 507.262,84.631C509.436,84.326 511.258,84.418 512.722,84.88C513.479,85.119 514.133,85.457 514.68,85.89C517.279,84.023 520.279,82.808 523.619,82.34C525.793,82.036 527.615,82.127 529.079,82.589C530.201,82.943 531.093,83.513 531.753,84.289C532.382,85.028 532.772,85.937 532.922,87.007C533.103,88.306 532.917,89.843 532.364,91.599L528.173,104.895C527.15,108.141 525.225,110.961 522.476,113.228C519.643,115.565 516.274,117.071 512.464,117.605C510.29,117.909 508.468,117.818 507.004,117.356C506.246,117.117 505.593,116.779 505.046,116.346C502.447,118.213 499.447,119.428 496.107,119.895C494.973,120.054 493.934,120.106 492.993,120.052L464.991,123.974L465.094,123.762C464.166,124.023 463.206,124.224 462.214,124.363L449.588,126.131L449.72,125.712C448.126,126.384 446.423,126.854 444.621,127.106C442.446,127.411 426.306,129.392 426.306,129.392L424.699,129.617C423.64,129.839 422.518,130 421.321,130.102L421.096,130.121L418.609,130.47Z" style="fill:rgb(35,31,32);"/>
                    </g>
                    <g transform="matrix(26.0417,0,0,19.5312,-11799.1,0)">
                        <path d="M460.93,116.189L455.134,117.007L457.917,108.228L463.712,107.409C465.626,107.139 466.559,108.888 465.792,111.309C465.025,113.729 462.844,115.918 460.93,116.189ZM469.036,110.85C470.521,106.165 468.714,102.785 465.012,103.308L459.217,104.126L460.721,99.379L471.108,97.912L472.407,93.814L462.02,95.281L459.783,95.597L458.776,95.74L450.591,121.568L459.629,120.291C463.332,119.767 467.552,115.532 469.036,110.85Z" style="fill:white;"/>
                    </g>
                    <g transform="matrix(26.0417,0,0,19.5312,-11799.1,0)">
                        <path d="M498.154,111.716C493.962,112.308 491.919,108.478 493.599,103.178C495.277,97.882 500.054,93.088 504.245,92.496C505.879,92.265 507.229,92.692 508.153,93.728L511.123,90.153C509.804,88.674 507.875,88.065 505.545,88.394C499.565,89.239 492.753,96.078 490.358,103.635C487.962,111.197 490.874,116.662 496.854,115.818C499.365,115.463 502.171,114.003 504.744,111.711L503.68,108.842C501.878,110.446 499.914,111.467 498.154,111.716Z" style="fill:white;"/>
                    </g>
                    <g transform="matrix(26.0417,0,0,19.5312,-11799.1,0)">
                        <path d="M520.07,106.523C518.268,108.131 516.304,109.152 514.539,109.401C510.352,109.993 508.308,106.163 509.988,100.863C511.667,95.567 516.443,90.773 520.632,90.182C522.266,89.951 523.617,90.376 524.543,91.409L527.513,87.838C526.191,86.359 524.263,85.75 521.932,86.08C515.955,86.924 509.139,93.764 506.744,101.321C504.348,108.882 507.264,114.347 513.24,113.503C515.755,113.148 518.557,111.689 521.133,109.396L520.07,106.523Z" style="fill:white;"/>
                    </g>
                    <g transform="matrix(26.0417,0,0,19.5312,-11799.1,0)">
                        <path d="M475.441,109.722L483.401,97.149L483.763,108.547L475.441,109.722ZM483.26,92.277L466.118,119.355L469.66,118.855L472.72,114.025L483.885,112.448L484.026,116.825L487.565,116.325L486.787,91.779L483.26,92.277Z" style="fill:white;"/>
                    </g>
                    <g transform="matrix(26.0417,0,0,19.5312,-11799.1,0)">
                        <path d="M421.948,123.653L419.948,110.252L426.439,102.264L428.439,115.665L421.948,123.653ZM449.374,106.607L455.602,99.349L455.132,96.252L446.601,97.458L443.997,97.825L442.797,97.995L431.669,111.689L429.896,99.817L428.064,100.076L426.15,100.347L424.264,100.613L411.452,116.381L416.084,101.768L412.84,102.227L404.646,128.082L407.889,127.624L409.204,123.475L416.718,114.228L418.487,126.086L420.164,125.849L422.232,125.557L424.137,125.287L443.177,101.859L450.754,100.788L445.053,107.434L445.453,110.076C447.462,110.22 448.397,111.983 447.672,114.271C446.83,116.926 444.076,119.374 441.528,119.734C438.983,120.094 437.592,118.231 438.433,115.577L438.642,114.908L435.392,115.393L435.192,116.035C433.634,120.95 435.895,124.448 440.228,123.836C444.564,123.223 449.358,118.728 450.915,113.813C451.96,110.517 451.302,107.807 449.374,106.607Z" style="fill:white;"/>
                    </g>
                    <g transform="matrix(26.0417,0,0,19.5312,-11799.1,0)">
                        <path d="M423.225,135.926L423.917,135.829C424.309,135.774 424.66,135.447 424.855,134.906C425.034,134.407 424.904,134.138 424.489,134.196L423.812,134.29L423.225,135.926ZM424.303,132.925L424.864,132.847C425.21,132.798 425.507,132.5 425.666,132.056C425.834,131.59 425.727,131.378 425.358,131.43L424.812,131.507L424.303,132.925ZM425.937,130.001C426.905,129.866 427.256,130.537 426.832,131.717C426.61,132.335 426.231,132.861 425.799,133.189L425.772,133.265C426.137,133.45 426.218,134.036 425.939,134.816C425.511,136.007 424.576,137.084 423.423,137.246L421.585,137.503L424.191,130.246L425.937,130.001Z" style="fill:rgb(245,130,31);"/>
                    </g>
                    <g transform="matrix(26.0417,0,0,19.5312,-11799.1,0)">
                        <path d="M428.141,133.139C427.662,134.472 427.62,135.403 428.227,135.318C428.85,135.231 429.504,134.183 429.97,132.883C430.464,131.508 430.499,130.618 429.884,130.704C429.277,130.789 428.619,131.807 428.141,133.139ZM431.108,132.724C430.361,134.803 428.997,136.609 427.698,136.791C426.406,136.972 426.233,135.443 427.003,133.299C427.757,131.197 429.129,129.41 430.413,129.231C431.728,129.047 431.882,130.568 431.108,132.724Z" style="fill:rgb(245,130,31);"/>
                    </g>
                    <g transform="matrix(26.0417,0,0,19.5312,-11799.1,0)">
                        <path d="M436.957,128.459L434.351,135.716L433.221,135.875L435.294,130.101L434.349,130.234C433.512,132.562 432.774,134.456 432.028,135.455C431.638,135.973 431.175,136.284 430.714,136.349C430.445,136.387 430.23,136.335 430.066,136.182L430.848,134.756C430.932,134.827 431.009,134.836 431.124,134.821C431.232,134.805 431.39,134.67 431.556,134.41C431.962,133.787 432.471,132.553 433.292,130.268L433.782,128.903L436.957,128.459Z" style="fill:rgb(245,130,31);"/>
                    </g>
                    <g transform="matrix(26.0417,0,0,19.5312,-11799.1,0)">
                        <path d="M441.069,127.884L440.54,129.357L438.556,129.634L438.07,130.988L439.815,130.744L439.294,132.196L437.549,132.44L437.008,133.946L439.092,133.654L438.563,135.127L435.341,135.578L437.947,128.321L441.069,127.884Z" style="fill:rgb(245,130,31);"/>
                    </g>
                    <g transform="matrix(26.0417,0,0,19.5312,-11799.1,0)">
                        <path d="M444.459,124.878C444.323,125.257 444.387,125.485 444.626,125.452C444.864,125.419 445.104,125.158 445.251,124.768L446.089,124.65C445.681,125.767 444.955,126.568 444.186,126.676C443.402,126.785 443.225,126.121 443.614,124.997L444.459,124.878ZM443.126,127.596L441.535,132.026L444.764,127.367L445.786,127.223L443.18,134.481L442.065,134.637L443.582,130.413L440.481,134.859L439.397,135.01L442.003,127.753L443.126,127.596Z" style="fill:rgb(245,130,31);"/>
                    </g>
                    <g transform="matrix(26.0417,0,0,19.5312,-11799.1,0)">
                        <path d="M445.837,132.7L446.36,132.627C446.79,132.566 447.145,132.167 447.332,131.647C447.527,131.105 447.42,130.791 447.021,130.847L446.475,130.923L445.837,132.7ZM449.848,126.655L449.315,128.139L447.377,128.41L446.996,129.472L447.557,129.393C448.572,129.251 449.003,130.004 448.47,131.488C447.945,132.95 446.88,133.963 445.865,134.105L444.166,134.343L446.772,127.085L449.848,126.655Z" style="fill:rgb(245,130,31);"/>
                    </g>
                    <g transform="matrix(26.0417,0,0,19.5312,-11799.1,0)">
                        <path d="M450.618,129.994C450.139,131.326 450.097,132.258 450.704,132.173C451.327,132.086 451.981,131.038 452.447,129.738C452.942,128.362 452.976,127.472 452.361,127.558C451.754,127.643 451.096,128.661 450.618,129.994ZM453.585,129.578C452.839,131.658 451.474,133.464 450.175,133.646C448.883,133.827 448.709,132.298 449.48,130.153C450.234,128.052 451.606,126.265 452.89,126.085C454.205,125.901 454.359,127.423 453.585,129.578Z" style="fill:rgb(245,130,31);"/>
                    </g>
                    <g transform="matrix(26.0417,0,0,19.5312,-11799.1,0)">
                        <path d="M459.434,125.314L456.828,132.571L455.698,132.729L457.771,126.956L456.825,127.088C455.989,129.417 455.251,131.31 454.505,132.31C454.114,132.827 453.652,133.139 453.191,133.204C452.922,133.241 452.707,133.189 452.542,133.037L453.325,131.61C453.409,131.681 453.486,131.691 453.601,131.675C453.709,131.66 453.867,131.525 454.033,131.264C454.439,130.642 454.948,129.408 455.769,127.123L456.259,125.758L459.434,125.314Z" style="fill:rgb(245,130,31);"/>
                    </g>
                    <g transform="matrix(26.0417,0,0,19.5312,-11799.1,0)">
                        <path d="M459.489,130.789L459.996,130.718C460.45,130.655 460.844,130.208 461.073,129.57C461.307,128.919 461.173,128.578 460.735,128.64L460.235,128.709L459.489,130.789ZM461.562,125.016L460.765,127.236L461.326,127.158C462.333,127.017 462.767,127.861 462.203,129.432C461.674,130.905 460.532,132.053 459.502,132.197L457.818,132.432L460.424,125.175L461.562,125.016Z" style="fill:rgb(245,130,31);"/>
                    </g>
                    <g transform="matrix(26.0417,0,0,19.5312,-11799.1,0)">
                        <path d="M465.717,124.434L464.694,127.283L466.139,127.081L467.163,124.232L468.3,124.073L465.694,131.33L464.557,131.489L465.599,128.586L464.153,128.789L463.111,131.692L461.973,131.851L464.579,124.593L465.717,124.434Z" style="fill:rgb(245,130,31);"/>
                    </g>
                    <g transform="matrix(26.0417,0,0,19.5312,-11799.1,0)">
                        <path d="M474.176,123.25L473.054,123.408L470.448,130.665L471.57,130.508L474.176,123.25ZM468.344,129.55L468.797,129.486C469.235,129.425 469.622,128.98 469.851,128.341C470.081,127.702 469.967,127.348 469.536,127.408L469.09,127.47L468.344,129.55ZM470.417,123.777L469.619,125.997L470.119,125.927C471.142,125.784 471.534,126.624 470.966,128.206C470.433,129.689 469.341,130.82 468.303,130.965L466.68,131.192L469.286,123.935L470.417,123.777Z" style="fill:rgb(245,130,31);"/>
                    </g>
                    <g transform="matrix(26.0417,0,0,19.5312,-11799.1,0)">
                        <path d="M477.623,120.238C477.487,120.616 477.551,120.844 477.789,120.811C478.027,120.778 478.267,120.518 478.415,120.127L479.252,120.009C478.844,121.126 478.119,121.927 477.35,122.035C476.566,122.144 476.388,121.48 476.777,120.356L477.623,120.238ZM476.289,122.955L474.698,127.385L477.927,122.726L478.95,122.582L476.343,129.84L475.228,129.996L476.745,125.771L473.645,130.218L472.561,130.369L475.167,123.112L476.289,122.955Z" style="fill:rgb(245,130,31);"/>
                    </g>
                    <g transform="matrix(26.0417,0,0,19.5312,-11799.1,0)">
                        <path d="M482.934,122.025L481.961,124.733L482.369,124.594L484.21,121.846L485.548,121.659L483.02,125.182L483.08,128.897L481.712,129.089L481.824,126.151L481.432,126.206L480.328,129.282L479.197,129.44L481.803,122.183L482.934,122.025Z" style="fill:rgb(245,130,31);"/>
                    </g>
                    <g transform="matrix(26.0417,0,0,19.5312,-11799.1,0)">
                        <path d="M490.429,120.976L487.823,128.233L486.693,128.392L488.766,122.618L487.82,122.751C486.984,125.079 486.245,126.973 485.5,127.972C485.109,128.49 484.647,128.801 484.186,128.866C483.916,128.904 483.701,128.852 483.537,128.699L484.319,127.273C484.404,127.344 484.48,127.354 484.596,127.337C484.703,127.322 484.861,127.187 485.028,126.927C485.434,126.304 485.943,125.07 486.764,122.785L487.253,121.42L490.429,120.976Z" style="fill:rgb(245,130,31);"/>
                    </g>
                    <g transform="matrix(26.0417,0,0,19.5312,-11799.1,0)">
                        <path d="M492.404,120.7L491.932,124.171L492.009,124.16L493.896,120.491L495.149,120.315L491.503,126.525C490.957,127.455 490.336,128.026 489.775,128.104C489.49,128.144 489.233,128.087 489.053,127.917L489.816,126.525C489.919,126.603 490.043,126.626 490.173,126.608C490.335,126.585 490.493,126.43 490.64,126.162L490.76,125.95L491.09,120.884L492.404,120.7Z" style="fill:rgb(245,130,31);"/>
                    </g>
                    <g transform="matrix(26.0417,0,0,19.5312,-11799.1,0)">
                        <path d="M494.867,125.838L495.39,125.765C495.82,125.705 496.175,125.305 496.362,124.785C496.557,124.244 496.45,123.93 496.05,123.985L495.505,124.062L494.867,125.838ZM498.878,119.794L498.345,121.278L496.407,121.549L496.026,122.61L496.587,122.532C497.602,122.39 498.033,123.142 497.5,124.626C496.975,126.089 495.91,127.102 494.895,127.244L493.196,127.481L495.802,120.224L498.878,119.794Z" style="fill:rgb(245,130,31);"/>
                    </g>
                    <g transform="matrix(26.0417,0,0,19.5312,-11799.1,0)">
                        <path d="M419.08,125.291L421.431,124.959L420.111,116.112L417.76,116.444L419.08,125.291Z" style="fill:rgb(208,207,206);"/>
                    </g>
                    <g transform="matrix(26.0417,0,0,19.5312,-11799.1,0)">
                        <path d="M409.662,119.701L410.363,117.489L408.665,117.729L405.654,127.228L407.352,126.988L408.573,123.135L413.524,117.042L411.601,117.314L409.662,119.701Z" style="fill:rgb(208,207,206);"/>
                    </g>
                    <g transform="matrix(26.0417,0,0,19.5312,-11799.1,0)">
                        <path d="M429.181,115.869L421.84,124.901L423.765,124.629L432.059,114.424L429.029,114.852L429.181,115.869Z" style="fill:rgb(208,207,206);"/>
                    </g>
                    <g transform="matrix(26.0417,0,0,19.5312,-11799.1,0)">
                        <path d="M448.342,114.484C447.413,117.418 444.463,120.031 441.626,120.431C440.213,120.631 439.019,120.247 438.262,119.352C437.517,118.471 437.3,117.182 437.648,115.768L435.933,116.024L435.864,116.245C435.108,118.629 435.288,120.719 436.355,121.981C437.191,122.969 438.496,123.37 440.129,123.139C444.223,122.561 448.761,118.282 450.245,113.6C450.443,112.975 450.572,112.373 450.642,111.798L448.557,112.093C448.68,112.817 448.614,113.629 448.342,114.484Z" style="fill:rgb(208,207,206);"/>
                    </g>
                    <g transform="matrix(26.0417,0,0,19.5312,-11799.1,0)">
                        <path d="M514.638,110.099C512.741,110.367 511.105,109.815 510.03,108.545C509.012,107.34 508.57,105.611 508.725,103.593L506.841,103.859C506.304,106.915 506.739,109.556 508.11,111.177C509.266,112.544 511.006,113.108 513.142,112.806C515.404,112.486 517.932,111.205 520.304,109.184L519.757,107.704C518.072,109.025 516.281,109.866 514.638,110.099Z" style="fill:rgb(208,207,206);"/>
                    </g>
                    <g transform="matrix(26.0417,0,0,19.5312,-11799.1,0)">
                        <path d="M491.722,113.492C492.878,114.859 494.618,115.423 496.756,115.12C499.019,114.801 501.547,113.52 503.915,111.499L503.367,110.021C501.681,111.341 499.893,112.181 498.252,112.413C496.351,112.68 494.715,112.129 493.641,110.859C492.623,109.655 492.181,107.926 492.335,105.909L490.455,106.174C489.917,109.23 490.352,111.872 491.722,113.492Z" style="fill:rgb(208,207,206);"/>
                    </g>
                    <g transform="matrix(26.0417,0,0,19.5312,-11799.1,0)">
                        <path d="M466.463,111.522C465.608,114.22 463.22,116.576 461.028,116.886L454.125,117.861L456.3,110.999L454.602,111.239L451.6,120.714L459.531,119.593C462.992,119.104 466.955,115.087 468.365,110.637C468.516,110.161 468.63,109.696 468.71,109.246L466.753,109.522C466.779,110.136 466.688,110.811 466.463,111.522Z" style="fill:rgb(208,207,206);"/>
                    </g>
                    <g transform="matrix(26.0417,0,0,19.5312,-11799.1,0)">
                        <path d="M484.487,109.156L474.032,110.632L475.519,108.284L473.806,108.526L467.527,118.445L469.24,118.203L472.299,113.374L484.563,111.641L484.705,116.019L486.842,115.717L486.557,106.725L484.419,107.027L484.487,109.156Z" style="fill:rgb(208,207,206);"/>
                    </g>
                </g>
            </g>
        </g>
    </g>
</svg>
