<?xml version="1.0" encoding="UTF-8" standalone="no"?>
<!DOCTYPE svg PUBLIC "-//W3C//DTD SVG 1.1//EN" "http://www.w3.org/Graphics/SVG/1.1/DTD/svg11.dtd">
<svg width="100%" height="100%" viewBox="0 0 257 256" version="1.1" xmlns="http://www.w3.org/2000/svg" xmlns:xlink="http://www.w3.org/1999/xlink" xml:space="preserve" xmlns:serif="http://www.serif.com/" style="fill-rule:evenodd;clip-rule:evenodd;stroke-linejoin:round;stroke-miterlimit:2;">
    <g transform="matrix(1,0,0,1,-5835,-1424)">
        <g transform="matrix(0.32,0,0,0.426667,5835.3,1424)">
            <rect id="vk-zenith-kazan" x="0" y="0" width="800" height="600" style="fill:none;"/>
            <g id="vk-zenith-kazan1" serif:id="vk-zenith-kazan">
                <g transform="matrix(4.51242,0,0,3.38432,-1626.74,-565.854)">
                    <path d="M491.175,209.884L481.772,224.011L477.887,221.425L483.554,212.912L470.222,216.323L466.815,214.055L476.218,199.929L480.103,202.515L474.567,210.832L487.592,207.499L491.175,209.884ZM419.297,208.22L420.357,210.057L426.756,206.363L428.665,209.67L422.266,213.364L423.539,215.568L434.043,209.504L436.164,213.178L421.619,221.576L413.134,206.879L428.067,198.258L428.067,203.156L419.297,208.22ZM508.95,236.083L504.051,236.083L501.192,231.13L490.169,237.494L487.836,233.452L498.858,227.088L495.585,221.418L499.259,219.297L508.95,236.083ZM484.031,282.704L487.316,279.39L499.368,291.337L496.083,294.652L491.413,290.022L485.484,296.003L490.154,300.632L486.868,303.947L474.816,292L478.102,288.685L482.471,293.016L488.399,287.035L484.031,282.704ZM505.532,265.309L504.008,271.578L499.886,270.576L501.41,264.307C501.773,262.815 502.903,262.194 504.04,262.471C505.176,262.747 505.895,263.818 505.532,265.309ZM497.288,263.305L495.763,269.573L491.641,268.571L490.538,273.106L507.028,277.115L509.655,266.312C510.632,262.292 508.552,258.765 505.142,257.936C501.732,257.107 498.284,259.207 497.288,263.305ZM457.919,306.625L457.791,306.078C457.497,304.815 457.559,304.004 457.959,303.293C458.359,302.584 459.059,302.003 460.268,301.722L465.159,300.583L466.121,304.715L457.919,306.625ZM459.884,297.455C456.701,298.197 455.046,299.509 454.161,300.931C453.032,302.747 452.614,304.42 453.384,307.73L455.299,315.947L459.844,314.889L458.881,310.757L467.083,308.847L468.046,312.978L472.591,311.92L468.741,295.392L459.884,297.455ZM410.783,289.069L411.178,288.669C412.09,287.747 412.808,287.368 413.623,287.327C414.437,287.287 415.301,287.57 416.184,288.443L419.754,291.975L416.771,294.991L410.783,289.069ZM419.589,285.845C417.266,283.546 415.273,282.846 413.599,282.855C411.46,282.867 409.821,283.405 407.432,285.821L401.498,291.82L404.816,295.101L407.8,292.085L413.787,298.007L410.804,301.024L414.122,304.305L426.055,292.24L419.589,285.845ZM402.293,274.433L395.097,281.852L393.69,276.904L398.977,271.454L397.526,266.352L391.201,268.15L389.925,263.662L406.248,259.021L407.524,263.51L401.607,265.192L403.044,270.247L409.933,271.981L411.273,276.694L402.293,274.433ZM444.818,309.748C443.855,313.123 440.249,315.062 436.271,313.926L425.986,310.991L427.15,306.911L437.435,309.847C438.911,310.268 440.01,309.592 440.331,308.467C440.652,307.343 440.076,306.189 438.599,305.767L433.568,304.331L437.088,300.924L429.479,298.752L430.643,294.672L444.848,298.727L441.115,302.34C444.171,303.843 445.658,306.806 444.818,309.748ZM412.71,220.662C415.749,222.417 416.754,226.386 414.685,229.969L409.337,239.232L405.663,237.111L411.011,227.848C411.779,226.518 411.389,225.289 410.377,224.704C409.364,224.119 408.104,224.397 407.337,225.727L404.721,230.258L402.271,226.015L398.315,232.868L394.641,230.747L402.026,217.955L404.624,222.454C406.825,219.855 410.06,219.132 412.71,220.662ZM454.464,194.794L459.131,194.794L459.131,211.764L454.464,211.764L454.464,205.188L446.043,205.188L446.043,211.764L441.376,211.764L441.376,194.794L446.043,194.794L446.043,200.946L454.464,200.946L454.464,194.794ZM450.254,181.742C409.711,181.742 376.845,214.608 376.845,255.15C376.845,295.693 409.711,328.559 450.254,328.559C490.796,328.559 523.662,295.693 523.662,255.15C523.662,214.608 490.796,181.742 450.254,181.742ZM518.995,255.15C518.995,293.116 488.219,323.893 450.254,323.893C412.288,323.893 381.511,293.116 381.511,255.15C381.511,217.185 412.288,186.408 450.254,186.408C488.219,186.408 518.995,217.185 518.995,255.15ZM483.353,266.556C466.219,280.125 441.33,278.421 426.233,262.283L452.384,247.184C439.3,244.361 425.193,248.257 415.405,258.41C417.047,276.215 432.025,290.151 450.254,290.151C465.589,290.151 478.628,280.286 483.353,266.556ZM417.154,243.745C434.288,230.176 459.177,231.88 474.274,248.018L448.123,263.117C461.207,265.94 475.315,262.044 485.102,251.891C483.46,234.086 468.482,220.15 450.254,220.15C434.918,220.15 421.879,230.015 417.154,243.745Z" style="fill:rgb(11,172,225);fill-rule:nonzero;"/>
                </g>
            </g>
        </g>
    </g>
</svg>
